<svg xmlns="http://www.w3.org/2000/svg" xmlns:xlink="http://www.w3.org/1999/xlink" width="144.356" height="80.944" viewBox="0 0 144.356 80.944">
  <defs>
    <clipPath id="clip-path">
      <rect id="Rectangle_1329" data-name="Rectangle 1329" width="136.817" height="47.139" fill="none"/>
    </clipPath>
  </defs>
  <g id="Group_2992" data-name="Group 2992" transform="matrix(0.966, 0.259, -0.259, 0.966, 12.201, 0)" clip-path="url(#clip-path)">
    <path id="Path_13220" data-name="Path 13220" d="M42.733,15.5c.009-.047.02-.095.029-.142-.488-.272-.97-.556-1.467-.811a.405.405,0,0,0-.631.325c-.046.243-.3.678.16.719a13,13,0,0,0,1.908-.091M19.578,31.2c-.03.035-.058.055-.068.081a.976.976,0,0,0-.047.179,2.624,2.624,0,0,1-.916,1.681,2.528,2.528,0,0,0-.929,2.043,4.364,4.364,0,0,1-.057.461c-.111.891-.051.944.868.888.269-.016.344-.123.357-.369a11.527,11.527,0,0,1,1.1-4.43c.181-.376-.015-.457-.31-.534m4.087-5.322c-.2.324-.36.53-.47.758a2.756,2.756,0,0,1-1.656,1.427c-.178.062-.35.139-.526.207a2.227,2.227,0,0,0-1.333,1.786c-.088.382.239.488.483.574.111.04.364-.1.448-.224A12.313,12.313,0,0,1,23.9,27.05a3.975,3.975,0,0,0,.3-.256l-.539-.92m71.378,9.82a2.052,2.052,0,0,0-.02.231c0,.249-.179.574.316.6.757.045.768.014.889-.523a26.4,26.4,0,0,1,.744-2.763c.279-.813.324-.784-.46-1.213-.3-.163-.431-.122-.565.184a10.685,10.685,0,0,0-.9,3.479m-53.108.231.068-.05c-.28-1.052-.5-2.123-.857-3.151-.371-1.077-.22-.977-1.276-.375a.459.459,0,0,0-.131.434,10.893,10.893,0,0,1,.98,3.409c.013.1.064.269.113.275a2.816,2.816,0,0,0,.921.015c.1-.023.124-.363.182-.557m74.829.593c.36.019.727.042.627-.443-.236-1.142-.429-2.3-.774-3.411-.33-1.066-.3-.826-1.16-.4-.3.15-.3.3-.2.617a31.059,31.059,0,0,1,.9,3.093c.094.418.185.63.606.54m-96.709.006c.628,0,.57-.01.7-.59a26.833,26.833,0,0,1,.769-2.8c.232-.691.284-.674-.351-1.047a.578.578,0,0,1-.082-.045c-.324-.273-.5-.158-.656.193a11.671,11.671,0,0,0-.922,3.711c-.046.557-.021.576.545.578M7.111,46.168l.191.184h4.317c-.058-.277-.122-.515-.155-.758-.045-.35-.045-.706-.109-1.052-.023-.126-.186-.338-.26-.328a4.527,4.527,0,0,0-1.619.317,18,18,0,0,0-1.953,1.5,1.345,1.345,0,0,1-.412.136M40.374,31.117c-.084-.142-.14-.251-.208-.354a10.872,10.872,0,0,0-2.447-2.671c-1.021-.776-.789-.7-1.433.262-.195.293-.145.44.13.676a26.559,26.559,0,0,1,2.272,2.13c.671.73.666.778,1.488.175a1.41,1.41,0,0,0,.2-.219m-18.247.748c.123-.139.21-.242.3-.339.7-.726,1.356-1.495,2.106-2.165.8-.718.832-.672.253-1.6-.159-.255-.29-.27-.519-.109a11.126,11.126,0,0,0-3.056,3.168c-.06.1-.125.294-.087.325.309.249.643.469,1,.72m93.751-.719c-.091-.157-.147-.266-.213-.368a10.809,10.809,0,0,0-2.446-2.681c-1.116-.868-.841-.679-1.448.25-.2.308-.115.455.144.684a30.76,30.76,0,0,1,2.3,2.179c.59.639.54.685,1.311.212a3.879,3.879,0,0,0,.354-.275m-15.064-2.459c-.185-.322-.357-.6-.5-.885s-.317-.312-.587-.119a11.414,11.414,0,0,0-2.681,2.642c-.653.91-.654.932.367,1.386a.483.483,0,0,0,.442-.107,10.8,10.8,0,0,1,2.725-2.66,1.488,1.488,0,0,0,.237-.257M30.359,24.452c0-.729-.026-.765-.687-.682a11.333,11.333,0,0,0-1.861.289c-1.078.325-2.127.741-3.186,1.126-.331.12-.377.332-.173.611a2.29,2.29,0,0,1,.189.32c.13.256.292.312.566.167A11.8,11.8,0,0,1,29.8,25c.431-.035.671-.143.557-.543M10.722,40c-.067-.489-.108-.808-.153-1.125-.148-1.054-.287-2.108-.451-3.159-.072-.46-.175-.493-.587-.261-.341.191-.669.407-1.019.579a.517.517,0,0,0-.3.678c.193.793.362,1.592.554,2.386.026.11.1.261.188.295.546.206,1.1.383,1.77.607m89.971-12.948c.247.423.428.713.588,1.013.138.259.293.268.575.177a29.5,29.5,0,0,1,2.927-.851c1.087-.232,1.088-.18,1.058-1.308-.009-.332-.135-.461-.457-.394-.983.2-1.977.37-2.943.633a14.019,14.019,0,0,0-1.748.731M30.359,26.5c0-.139-.006-.279,0-.418.016-.3-.112-.427-.421-.4a11.251,11.251,0,0,0-4.42,1.241.455.455,0,0,0-.133.423,2.708,2.708,0,0,0,.447.757.515.515,0,0,0,.442.158,11.413,11.413,0,0,1,3.768-1c.116-.013.245-.21.3-.347a1.1,1.1,0,0,0,.011-.413m81.341.616c-.191-.114-.316-.2-.45-.268a11.279,11.279,0,0,0-4.1-1.152c-.589-.057-.6-.043-.6.559a5.2,5.2,0,0,1,0,.555c-.037.328.085.431.431.49.911.154,1.812.366,2.711.584.418.1.9.477,1.2.357.345-.138.518-.687.81-1.124m-75.5.054a1.213,1.213,0,0,0-.145-.153,3.176,3.176,0,0,0-.285-.161,10.985,10.985,0,0,0-3.494-1.077c-1.465-.2-1.16-.228-1.21,1.034-.013.329.1.429.438.489.91.158,1.811.373,2.71.592.416.1.9.469,1.2.347.348-.142.526-.687.786-1.07m5.253,15.795c-.481-.284-.47-.672-.3-1.117a1.14,1.14,0,0,0,.022-.55c-.044-.3-.027-.7-.213-.854a2.167,2.167,0,0,0-2.059-.622.721.721,0,0,1-.937-.312c-.042-.077-.317-.113-.43-.059-.371.179-.385.357.008.692a.556.556,0,0,1,.14.836,2,2,0,0,0,.393,1.788,2.053,2.053,0,0,0,2.084.355.515.515,0,0,1,.459.058c.371.408.579.173.837-.213M69.073,11.91c-.2-.581-.338-1.09-.549-1.567a.559.559,0,0,1,.212-.753c.782-.672,1.547-1.365,2.32-2.047.173-.153.327-.274.1-.526s-.367-.2-.579-.008Q69.219,8.232,67.84,9.432a.52.52,0,0,0-.17.655c.122.318.22.644.352.958s.067.464-.282.573c-1.246.388-2.481.81-3.72,1.218-.238.078-.451.16-.353.483s.326.276.562.2q1.145-.374,2.286-.752c.832-.276,1.663-.557,2.557-.856M45.66,14.895a2.044,2.044,0,0,0-1.855,2.767c.343.811,1.149,1.155,1.78,1.672.048.04.288-.06.365-.154.67-.817,1.318-1.652,1.984-2.472.183-.226.14-.372-.083-.532-.343-.245-.651-.544-1.013-.756a10.882,10.882,0,0,0-1.178-.525m-32-1.027H15.5c1.178,0,1.326-.191,1.038-1.343a1.8,1.8,0,0,0-.058-.175,2.949,2.949,0,0,0-5.743,1.123c.012.3.118.4.42.4.834-.013,1.668,0,2.5,0m92.515,29.088a5.84,5.84,0,1,0-5.94-5.859,5.918,5.918,0,0,0,5.94,5.859m25.449-13.323c-1.307,0-2.615.009-3.923-.006-.4,0-.569.11-.556.528q.041,1.2,0,2.408c-.016.438.156.587.58.545A13.56,13.56,0,0,1,129.2,33c.85.01,1.7.091,2.55.1.487,0,.975-.111,1.463-.112.466,0,.93.09,1.4.119.295.019.594-.026.887,0,.409.041.561-.092.547-.51q-.043-1.226,0-2.454c.014-.416-.145-.527-.55-.521-1.291.021-2.583.008-3.875.009m-98.2,12.719a6.322,6.322,0,0,0,1.846,3.5l-.808.449c.011.031.023.061.035.091h2.665c-.1-.109-.132-.189-.192-.213a3.991,3.991,0,0,1-1.757-1.5,6.625,6.625,0,0,1-.964-2,4.811,4.811,0,0,1,.264-3.054,8.431,8.431,0,0,1,.813-1.211A3.626,3.626,0,0,1,37.187,36.9c.61-.221,1.263-.327,1.886-.515a.484.484,0,0,0,.263-.337c.045-.314-.193-.358-.433-.312-.75.146-1.5.309-2.288.474a6,6,0,0,0-7.824-4.634,5.8,5.8,0,0,0-3.832,7.092,5.532,5.532,0,0,0,2.519,3.356,6.153,6.153,0,0,0,5.937.325M15.375,33.491c0-.508-.016-.912,0-1.314.029-.612.073-1.224.128-1.835a.462.462,0,0,0-.385-.538c-.674-.216-1.331-.5-2.017-.655a2.4,2.4,0,0,0-1.273.017,7.2,7.2,0,0,1-2.767.475c-1.007-.043-2.018-.011-3.028-.008-.787,0-.957.208-.681.921a2.275,2.275,0,0,1,0,1.7c-.413,1.128-.433.857.614,1.164a1.764,1.764,0,0,0,1.414.086,4.26,4.26,0,0,1,1.166-.315c.576-.105,1.171-.125,1.736-.266a6.369,6.369,0,0,1,2.361-.524,3.628,3.628,0,0,1,1.025.3c.556.239,1.1.506,1.705.788m-.795,5.194a3.31,3.31,0,0,0,0,.453c.316,2.251.642,4.5.949,6.751.058.426.258.548.686.546,3.44-.015,6.88-.008,10.32-.009.133,0,.266-.018.4-.028a.6.6,0,0,0-.311-.281,9.907,9.907,0,0,1-5.651-6.526c-.206-.716-.2-.7-.964-.723a33.8,33.8,0,0,1-5.431-.182M57.792,15.361c.009-.038.019-.076.028-.113-.135-.091-.269-.185-.407-.272-2.786-1.752-5.59-3.475-8.353-5.26-4.213-2.721-8.493-5.33-12.905-7.73a2.793,2.793,0,0,0-1.722-.372c-1.61.207-3.215.452-4.829.616a2.079,2.079,0,0,0-1.433.835c-1.992,2.265-3.76,4.742-6.331,6.46a1.056,1.056,0,0,0-.5,1.064,12.671,12.671,0,0,1,.01,1.391.434.434,0,0,0,.376.5c.911.247,1.824.494,2.72.787.358.117.511.026.652-.284.83-1.818,1.674-3.629,2.51-5.444A2.144,2.144,0,0,0,27.7,7.2l-.076-.055-5.111,4.062C22,10.78,22,10.7,22.46,10.341c.883-.7,1.753-1.414,2.646-2.1,1.549-1.19,3.052-2.448,4.686-3.514,1.383-.9,2.921-1.578,4.4-2.344a1.343,1.343,0,0,1,1.791.256,4.1,4.1,0,0,0,.576.481c2.215,1.69,4.2,3.662,6.913,4.706A31.653,31.653,0,0,1,47.5,10.133a11.073,11.073,0,0,1,3.667,3.014A5.857,5.857,0,0,1,52,14.933c.107.368.22.474.578.472,1.594-.011,3.188,0,4.781-.007.146,0,.291-.024.437-.038m35.3.727H81.167c-.9,0-.9,0-.9.882,0,.675,0,.675.714.675H95.895c.253,0,.506-.01.757.006.285.018.472.361.283.561a.773.773,0,0,1-.508.131q-7.763.01-15.527.006c-.625,0-.629,0-.629.624q0,3.2,0,6.4c0,.791.012.826.776.589a20.562,20.562,0,0,1,6.385-.485c.3,0,.39.139.364.405-.038.395-.345.293-.575.289a19.343,19.343,0,0,0-6.376.555c-.4.128-.592.277-.585.728.029,1.763.012,3.526.013,5.289,0,.633,0,.637.669.637,3.708,0,7.417-.011,11.124.014.518,0,.688-.188.837-.634,1.8-5.379,5.578-8.562,11.248-9.583a1.763,1.763,0,0,0,1.684-1.921q0-2.249,0-4.5c0-.669,0-.67-.667-.67H93.1m9.42,30.271a2.321,2.321,0,0,0-.336-.221,3.827,3.827,0,0,1-.96-.38,16.269,16.269,0,0,1-2.575-2.13,10.092,10.092,0,0,1-2.2-4.2c-.111-.483-.342-.561-.774-.56-4.292.011-8.585,0-12.877.012a3.559,3.559,0,0,1-2.912-1.367.81.81,0,0,0-.54-.27c-1.736-.02-3.472-.017-5.207,0a.69.69,0,0,0-.483.2A3.763,3.763,0,0,1,70.4,38.883c-8.584-.024-17.169-.013-25.753-.011-.225,0-.449.026-.717.042,1.361,3.187.552,5.643-2.487,7.465.253.023.373.044.493.044q5.444,0,10.888-.005c.448,0,.9-.111,1.343-.107,1.021.007,2.043.071,3.064.079.72,0,1.44-.064,2.159-.065.42,0,.841.091,1.261.094.2,0,.4-.165.595-.156.715.032,1.427.12,2.142.159.434.024.878-.047,1.306.006s.8-.153,1.264-.038a6.527,6.527,0,0,0,1.826.033,11.36,11.36,0,0,1,2.44-.009c.66.114,1.32-.1,2-.019.876.108,1.777,0,2.664.042.839.043,1.664-.149,2.512-.033a11.831,11.831,0,0,0,1.909-.027c.481-.014.962-.054,1.442-.044.647.013,1.294.08,1.941.092,1.475.029,2.95-.037,4.426,0,.274.006.551-.114.825-.112.6,0,1.2.069,1.8.076a11.3,11.3,0,0,1,1.827-.024c1.185.212,2.357-.113,3.542.04.686.088,1.442-.146,2.1-.087.81.073,1.623-.009,2.427.1a5.433,5.433,0,0,0,.786-.056c.667-.009,1.334,0,2.095,0M71.108,3.525h.65c1.894,0,3.787.016,5.68-.011.482-.006.612.13.61.6-.019,3.758-.01,7.515-.011,11.273,0,.7,0,.7-.729.7q-13.586,0-27.172-.006c-.541,0-1.046-.042-1.276.6-.069.193-.27.339-.4.514a1.089,1.089,0,0,0-.114.225,19.1,19.1,0,0,1,2.587.813,2.534,2.534,0,0,0,2.253.028,8.353,8.353,0,0,1,3.447-.628c7.417.033,14.833.017,22.25.016.674,0,.675,0,.675-.663q0-6.448-.007-12.9c0-.409.1-.569.555-.569q8.71.02,17.42.008a8.32,8.32,0,0,1,3.36.66,7.73,7.73,0,0,1,3.26,2.6q2.169,3.009,4.3,6.04a2.01,2.01,0,0,1-1.463,3.233c-.392.049-.448.218-.445.542q.015,2.436,0,4.871a2.4,2.4,0,0,1-2.1,2.372,13.028,13.028,0,0,0-8.27,4.437,12.287,12.287,0,0,0-3.114,7.691c-.008.168.018.418.128.5a.735.735,0,0,0,1.125-.555,11.05,11.05,0,0,1,.982-3.987A11.889,11.889,0,0,1,109.9,25.563a11.345,11.345,0,0,1,8.179,10.378c.044.458.17.6.642.593,3.755-.018,7.511-.009,11.267-.009,1.246,0,2.493-.012,3.739.006.377.006.5-.117.485-.481a15.3,15.3,0,0,1,0-1.716c.031-.45-.155-.54-.571-.537-2.178.016-4.356.008-6.533.007-.671,0-.672,0-.673-.678q0-1.74,0-3.479c0-.7,0-.7.7-.7q3.124,0,6.249,0c.328,0,.529-.042.4-.44a10.15,10.15,0,0,0-5.7-6.406c-4.637-2.016-9.323-3.923-13.981-5.894a1.989,1.989,0,0,1-.778-.63q-2.884-3.9-5.727-7.836a15.605,15.605,0,0,0-4.285-4.2A19.137,19.137,0,0,0,93.387.76c-3.531-.1-7.069-.039-10.6-.031q-2.271.005-4.541.084a17.137,17.137,0,0,0-4.44.594,5.03,5.03,0,0,0-2.694,2.117M16.069,34.507c-.212-.071-.361-.11-.5-.17-.75-.322-1.5-.646-2.246-.978a2.253,2.253,0,0,0-1.561-.16q-1.614.438-3.241.835c-.5.124-1.017.2-1.523.32-.145.033-.394.114-.4.177a.8.8,0,0,0,.168.528,4.711,4.711,0,0,0,.622.416.532.532,0,0,0,.686.007,13.186,13.186,0,0,1,1.388-.792,1.051,1.051,0,0,1,.7-.051c.478.148.923.4,1.4.548a1.632,1.632,0,0,0,.808-.008c.318-.075.607-.26.922-.353s.527-.006.52.376a4.63,4.63,0,0,0,.044.833c.214,1.334.759,2.226,2.415,2.149.349-.016.507-.092.516-.469.022-.924.085-1.848.134-2.772a2.918,2.918,0,0,1,1.055-2.24,2.187,2.187,0,0,0,.8-1.526c.038-.369.108-.734.173-1.1a2.914,2.914,0,0,1,2.031-2.555,2.891,2.891,0,0,0,1.782-1.54,2.631,2.631,0,0,1,.85-1.022,13.732,13.732,0,0,1,7.012-1.939c.317-.006.466.109.45.435s.012.681-.008,1.02.074.485.461.515A11.835,11.835,0,0,1,37.4,26.983a11.584,11.584,0,0,1,5.048,7.637c.118.614.185,1.237.282,1.89,8.273-.016,16.551.024,24.828,0,8.236-.023,16.471.047,24.8-.037-.3-.833.164-1.587.018-2.467-.731.412-1.54-.216-2.249.208a1.331,1.331,0,0,0-.391-.135c-.756-.016-1.511,0-2.266-.015a20.5,20.5,0,0,1-2.125.021,23.5,23.5,0,0,0-2.733-.012c-.513,0-1.029-.04-1.539,0-.623.05-1.283-.22-1.871.184-.014.01-.072-.056-.114-.067a2.316,2.316,0,0,0-.533-.121c-.888-.013-1.776,0-2.664-.011-1.058-.014-2.11.134-3.175.04a25.658,25.658,0,0,0-2.726-.028c-.524.011-1.047.132-1.57.128-.651,0-1.3-.112-1.952-.127-.99-.023-1.982-.013-2.972,0-.257,0-.514.112-.77.107-.967-.02-1.934-.079-2.9-.1-.823-.019-1.646-.007-2.47,0a7.734,7.734,0,0,0-1.414.036c-.454.087-.858-.15-1.3-.061a6.521,6.521,0,0,1-1.34.118c-.746-.008-1.491-.075-2.237-.1-.193-.006-.389.088-.582.084-.76-.017-1.52-.06-2.28-.084-.381-.012-.761,0-1.128,0-.062-.574.158-.7.619-.7,4.134.015,8.268.009,12.4.009h18.84c.629,0,.631,0,.631-.623,0-1.717,0-3.433,0-5.149,0-.358-.07-.514-.489-.39-.686.2-1.388.35-2.074.518-.237-.615-.208-.672.332-.8s1.1-.292,1.651-.406a.626.626,0,0,0,.588-.727c-.022-2.257-.01-4.515-.011-6.772,0-.677,0-.678-.712-.678q-11.55,0-23.1.01a5.318,5.318,0,0,0-1.38.242c-.575.159-1.127.4-1.7.57a2.136,2.136,0,0,1-1.474-.077c-.755-.3-1.539-.539-2.315-.79-.325-.105-.66-.178-1.06-.284-.04.047-.144.16-.24.279-.488.607-.981,1.209-1.456,1.826-.2.254-.362.284-.618.075-.534-.434-1.1-.83-1.629-1.269a2.424,2.424,0,0,1-.928-2.178c.044-.45-.079-.551-.524-.531a97.616,97.616,0,0,0-17.15,2.146,6.872,6.872,0,0,0-3.564,1.665,1.755,1.755,0,0,1-.935.508,10.572,10.572,0,0,1-2.156.04,2.508,2.508,0,0,0-2.091.614,5.3,5.3,0,0,1-1.062.845,8.847,8.847,0,0,1-1.963.853c-.8.2-1.652.183-2.464.344a12.619,12.619,0,0,0-1.92.6.515.515,0,0,0-.24.438c.294,1.439.626,2.869.929,4.306.066.311.227.386.5.3.346-.1.692-.207,1.029-.335a2.542,2.542,0,0,1,1.705-.181c.959.3,1.9.65,2.862.956a.4.4,0,0,1,.321.474c-.032,1.313-.044,2.628-.073,3.942,0,.238-.054.474-.09.759M11.3,14.666,9.949,14.5c0-.382-.011-.628,0-.872a5.14,5.14,0,0,1,.11-1.207,4.043,4.043,0,0,1,1.556-2.2,3.313,3.313,0,0,1,2.331-.654,3.907,3.907,0,0,1,2.326,1.136,3.376,3.376,0,0,1,1.035,2.264c0,.4.026.8,0,1.205a1.628,1.628,0,0,1-.161.472H15.313c-.188,1.278-.381,2.6-.576,3.911-.1.675-.21,1.349-.3,2.025-.043.311-.067.625-.084.939,0,.062.067.185.093.183a.876.876,0,0,0,.43-.1,16.886,16.886,0,0,0,1.461-1.209,2.622,2.622,0,0,1,1.609-.561,11.641,11.641,0,0,1,1.7.128,2.54,2.54,0,0,0,1.846-.635,4.973,4.973,0,0,0,.619-.665,4.94,4.94,0,0,1,.741-.353c.779-.227,1.56-.465,2.356-.622,1.993-.4,3.983-.833,6-1.1,2.748-.37,5.516-.6,8.276-.885.244-.025.386-.1.388-.354a2.73,2.73,0,0,1,.036-.369,1.183,1.183,0,0,1,1.937-.944c.495.273.993.541,1.475.833a.533.533,0,0,0,.68-.02,2.629,2.629,0,0,1,3.32.06,2.211,2.211,0,0,0,1.6.514c.629-.041,1.262-.006,1.894-.01.486,0,.649-.154.448-.585a7.58,7.58,0,0,0-1.043-1.683,13.03,13.03,0,0,0-1.5-1.352,1.307,1.307,0,0,0-1.071-.478c-.169.022-.358-.208-.556-.271-1.071-.34-2.149-.665-3.223-.993-1.183-.363-2.35-.8-3.557-1.056a6.988,6.988,0,0,1-1.568-.8c-.544-.255-1.1-.493-1.618-.79-.564-.322-1.08-.723-1.64-1.051-.685-.4-1.394-.765-2.161-1.182a10.042,10.042,0,0,1-.612,1.723c-.42.738-.515,1.649-1.541,2.065-1.462.593-2.83,1.41-4.231,2.144a.8.8,0,0,0-.357.345c-.327.762-.6,1.545-.947,2.3a.614.614,0,0,1-.668.434,4.78,4.78,0,0,1-.914-.284c-.81-.206-1.624-.4-2.431-.615-.3-.082-.59-.22-.946-.356,0-.96-.006-2.033.009-3.107a.686.686,0,0,1,.19-.36,1.562,1.562,0,0,1,.342-.318,29.843,29.843,0,0,0,5.711-5.7c.407-.473.8-.954,1.23-1.408a1.028,1.028,0,0,1,.543-.326c1.982-.274,3.967-.526,5.953-.774a2.714,2.714,0,0,1,1.719.4c2.958,1.71,5.953,3.365,8.863,5.151C49.7,9.207,54.1,12.036,58.53,14.826c.21.132.428.25.69.4a3.961,3.961,0,0,0,.2-.443c.369-1.2.786-2.384,1.07-3.6a11.579,11.579,0,0,1,.433-1.26,7.645,7.645,0,0,0,.1-2.892c-.019-.693-.091-1.386-.141-2.078-.046-.649-.1-1.3-.143-1.947-.018-.256-.049-.5.347-.509.364-.008.352.215.366.456q.105,1.712.22,3.423a.523.523,0,0,0,.147.333,3.605,3.605,0,0,0,.188-.416c.149-.472.284-.948.426-1.422.073-.245.2-.355.489-.269s.258.265.2.472c-.258.859-.47,1.735-.785,2.573a6.114,6.114,0,0,0-.349,3.043c.087.642.044.645-.621.693-.066.005-.175.061-.183.107-.138.784-.592,1.484-.664,2.285l.174.15a1.449,1.449,0,0,1,.18-.374Q65.3,8.689,69.736,3.836c.526-.576,1.062-1.141,1.591-1.715a5.562,5.562,0,0,1,3.081-1.6,32.345,32.345,0,0,1,6.358-.49c3.992-.033,7.986-.051,11.977,0a21.194,21.194,0,0,1,10.14,2.427,15.5,15.5,0,0,1,5.134,4.644c1.915,2.665,3.862,5.308,5.815,7.947a1.981,1.981,0,0,0,.792.61c4.543,1.919,9.114,3.779,13.64,5.738a10.829,10.829,0,0,1,6.246,7.1c.1.337.249.457.585.445.41-.015.821.005,1.231,0,.291-.006.43.091.428.4-.011,1.361-.007,2.722,0,4.083,0,.275-.11.393-.4.382-.346-.012-.694.005-1.041,0-.266-.007-.392.069-.4.367-.034,1.018-.046,1.018.991,1.017.972,0,.9-.078.9.872,0,.743-.029,1.486.011,2.226.025.485-.158.594-.623.592q-9.469-.02-18.937-.009c-1.134,0-1.107.008-1.446,1.084-.194.616-.494,1.2-.746,1.8a7.927,7.927,0,0,1-1.5,2.058c-.213.244-.383.524-.609.756-.1.107-.325.1-.438.206a8.181,8.181,0,0,1-2.427,1.407.335.335,0,0,0-.108.087.662.662,0,0,0-.059.146c1,0,1.973.017,2.946-.006.642-.015,1.282-.121,1.924-.124.5,0,1.01.126,1.516.134q1.978.031,3.954,0c.539-.008,1.076-.117,1.614-.122.476,0,.952.1,1.429.106,3.261.015,6.521.014,9.782.023.235,0,.571-.074.523.326a.55.55,0,0,1-.306.352,1.4,1.4,0,0,1-.514.019H.755A1.349,1.349,0,0,1,.241,47.1.494.494,0,0,1,0,46.74c-.006-.1.144-.244.259-.3a1.113,1.113,0,0,1,.42-.019c1.61,0,3.22.012,4.829-.013a1.387,1.387,0,0,0,.754-.277c.749-.565,1.5-1.138,2.191-1.767a3,3,0,0,1,2.2-.869c.464.017.561-.184.489-.593-.1-.579-.176-1.162-.233-1.746-.033-.324-.231-.447-.5-.532-.586-.181-1.167-.379-1.757-.546a.635.635,0,0,1-.519-.522c-.2-.922-.439-1.835-.622-2.76a.951.951,0,0,0-.5-.732c-.151-.081-.285-.2-.44-.271a1.053,1.053,0,0,1-.715-1.239c.065-.344-.118-.5-.462-.556-.311-.046-.613-.14-.919-.215-.265-.065-.368-.211-.263-.477.09-.23.152-.472.251-.7A2.563,2.563,0,0,0,4.6,30.48c-.317-.785.094-1.365.943-1.52a.485.485,0,0,0,.451-.494,9.806,9.806,0,0,0,.086-3.405c-.226-1,.478-1.677,1.566-1.649a6.175,6.175,0,0,0,2.429-.786c.071-.028.117-.174.132-.271.157-1.047.313-2.094.451-3.144.037-.283-.006-.575.019-.861.012-.134.129-.257.149-.392.1-.651.216-1.3.252-1.959a1.245,1.245,0,0,1,.061-.474,3.857,3.857,0,0,0,.16-.86" transform="translate(0 0)"/>
    <path id="Path_13221" data-name="Path 13221" d="M23,52.887a1.835,1.835,0,0,0,.084-2.7.976.976,0,0,1,.01-.6A2.366,2.366,0,0,1,24.172,48.5c.065-.033.051-.379-.038-.5a9.446,9.446,0,0,0-.931-1.1c-.564-.574-.372-1.263-.336-1.926a.518.518,0,0,1,.4-.107,2.5,2.5,0,0,1,.52.385.844.844,0,0,0,.005,1.237,15.137,15.137,0,0,1,1.066,1.28,1,1,0,0,1-.371,1.485,1.919,1.919,0,0,1-.307.2c-.42.155-.412.432-.213.735a2.654,2.654,0,0,1,.262,2.181c-.19.8-.481.938-1.235.515" transform="translate(-16.091 -31.646)"/>
    <path id="Path_13222" data-name="Path 13222" d="M3.96,75.14a1.755,1.755,0,0,1,.774-1.557c.674-.443.8-.764.418-1.479A2.171,2.171,0,0,1,5.141,69.9c.175-.323.255-.7.4-1.034.085-.193.132-.476.488-.337.289.112.39.254.243.559-.223.462-.392.95-.61,1.415a1.052,1.052,0,0,0,.02,1.019,4.49,4.49,0,0,1,.252.6A1.551,1.551,0,0,1,5.3,74.065c-.652.451-.726.654-.479,1.4.179.543.392,1.076.554,1.624a.427.427,0,0,1-.165.385c-.11.052-.4,0-.427-.076-.316-.8-.6-1.62-.827-2.263" transform="translate(-2.794 -48.324)"/>
    <path id="Path_13223" data-name="Path 13223" d="M64.338,44.508c-.07.407-.146.9-.244,1.395a2.325,2.325,0,0,1-.246.8c-.074.115-.369.128-.563.125-.264-.005-.28-.187-.212-.4.143-.445.3-.889.4-1.343.032-.139-.049-.41-.152-.453a1.726,1.726,0,0,1-.962-1.359c-.061-.276.208-.657.4-.944.329-.492.272-.647-.1-1.112a5.974,5.974,0,0,1-.7-1.4c-.022-.052.175-.24.3-.289a.377.377,0,0,1,.347.087,15.029,15.029,0,0,1,1.127,2.126,1.2,1.2,0,0,1-.339,1.018c-.317.3-.34.589-.131.839a8.185,8.185,0,0,0,1.071.91" transform="translate(-43.717 -27.881)"/>
    <path id="Path_13224" data-name="Path 13224" d="M30.355,64.666a1.881,1.881,0,0,0,1.114,1.817,1.45,1.45,0,0,1,.907,1c.069.353.286.461.56.351.105-.042.176-.365.133-.528a2.138,2.138,0,0,0-1.2-1.406,1.134,1.134,0,0,1-.428-1.931,9.931,9.931,0,0,0,.674-.889.452.452,0,0,0-.09-.44.466.466,0,0,0-.452.028,8.713,8.713,0,0,0-.941,1.211,3.2,3.2,0,0,0-.28.791M57.863,64.6c.22.2.293.613.675.326a5.838,5.838,0,0,1,4.6-.857c1.73.254,3.439.641,5.168.9,1.056.155,2.133.171,3.2.249.247.018.392-.067.377-.341-.013-.238-.09-.373-.367-.362a28.059,28.059,0,0,1-6.264-.827,15.732,15.732,0,0,0-4.227-.389,4.972,4.972,0,0,0-3.168,1.3m27.205-2.369c-.787-.043-.886.047-1.026.589-.158.613-.369,1.213-.52,1.828a2.6,2.6,0,0,1-2.265,2.011q-1.968.4-3.915.886a4.869,4.869,0,0,0-2.524,1.28c-.089.1-.152.363-.1.413a.428.428,0,0,0,.614.076,5.766,5.766,0,0,1,1.583-.881c1.449-.417,2.923-.761,4.4-1.065a3.341,3.341,0,0,0,2.914-2.6c.106-.451.278-.887.385-1.337.1-.4.291-.549.731-.484,1.123.165,2.25.312,3.38.409a2.483,2.483,0,0,0,1.18-.182c.887-.4,1.734-.882,2.6-1.321.235-.119.347-.245.2-.506s-.3-.248-.538-.118c-.76.408-1.546.77-2.3,1.194a2.161,2.161,0,0,1-1.452.219c-1.186-.168-2.379-.294-3.356-.411M31.891,73.373c.035-.284.085-.521.089-.759.029-1.314.042-2.628.073-3.942a.4.4,0,0,0-.321-.474c-.958-.306-1.9-.653-2.862-.956a2.548,2.548,0,0,0-1.706.181c-.336.129-.683.232-1.029.335-.274.081-.436.007-.5-.3-.3-1.437-.636-2.868-.929-4.307a.514.514,0,0,1,.241-.438,12.684,12.684,0,0,1,1.919-.6c.812-.162,1.666-.141,2.464-.344a8.836,8.836,0,0,0,1.963-.853,5.32,5.32,0,0,0,1.062-.846,2.509,2.509,0,0,1,2.091-.614,10.552,10.552,0,0,0,2.156-.04,1.76,1.76,0,0,0,.935-.508A6.87,6.87,0,0,1,41.1,57.234a97.626,97.626,0,0,1,17.151-2.146c.445-.02.567.08.524.53A2.424,2.424,0,0,0,59.7,57.8c.529.439,1.1.835,1.629,1.269.256.208.423.179.619-.075.475-.616.968-1.219,1.456-1.825.1-.119.2-.233.24-.279.4.105.735.178,1.06.283.776.252,1.559.487,2.314.791a2.138,2.138,0,0,0,1.474.077c.571-.174,1.122-.411,1.7-.571a5.339,5.339,0,0,1,1.38-.241q11.55-.022,23.1-.01c.712,0,.713,0,.713.678,0,2.258-.012,4.516.011,6.773a.626.626,0,0,1-.588.726c-.554.114-1.1.272-1.65.406s-.569.188-.332.8c.686-.168,1.388-.316,2.074-.518.419-.123.49.032.489.39-.009,1.717,0,3.433,0,5.15,0,.619,0,.622-.631.622H75.91c-4.134,0-8.268.006-12.4-.009-.46,0-.68.125-.618.7.367,0,.748-.01,1.128,0,.76.023,1.52.066,2.28.084.193,0,.389-.09.582-.084.746.024,1.492.09,2.237.1a6.528,6.528,0,0,0,1.34-.119c.447-.089.851.148,1.3.061a7.762,7.762,0,0,1,1.414-.036c.823,0,1.647-.014,2.47,0,.968.022,1.934.081,2.9.1.256.005.513-.1.77-.107.99-.014,1.982-.024,2.972,0,.651.015,1.3.123,1.952.127.522,0,1.045-.118,1.569-.128a25.587,25.587,0,0,1,2.727.029c1.065.093,2.117-.055,3.175-.041.888.012,1.776,0,2.664.011a2.308,2.308,0,0,1,.533.121c.042.011.1.077.114.067.588-.4,1.248-.134,1.871-.185.51-.041,1.026,0,1.539,0a23.372,23.372,0,0,1,2.733.012,20.578,20.578,0,0,0,2.125-.022c.755.011,1.511,0,2.266.016a1.339,1.339,0,0,1,.391.135c.71-.424,1.518.2,2.249-.208.146.879-.321,1.634-.018,2.467-8.326.085-16.562.015-24.8.037-8.278.023-16.555-.017-24.828,0-.1-.654-.164-1.277-.282-1.89a11.58,11.58,0,0,0-5.048-7.637,11.829,11.829,0,0,0-5.871-1.993c-.387-.029-.482-.177-.461-.515s-.008-.681.008-1.021-.134-.44-.451-.434a13.727,13.727,0,0,0-7.011,1.939,2.617,2.617,0,0,0-.85,1.021,2.89,2.89,0,0,1-1.782,1.54,2.914,2.914,0,0,0-2.031,2.555c-.065.365-.135.731-.173,1.1a2.184,2.184,0,0,1-.8,1.527,2.918,2.918,0,0,0-1.056,2.24c-.049.924-.112,1.848-.134,2.772-.009.376-.166.453-.516.469-1.656.077-2.2-.815-2.416-2.149a4.711,4.711,0,0,1-.045-.833c.008-.382-.213-.467-.52-.376s-.6.278-.922.352a1.632,1.632,0,0,1-.808.009c-.479-.145-.924-.4-1.4-.548a1.051,1.051,0,0,0-.7.051,13.361,13.361,0,0,0-1.388.792.533.533,0,0,1-.687-.007,4.771,4.771,0,0,1-.622-.416.8.8,0,0,1-.168-.528c0-.062.25-.144.4-.177.506-.114,1.02-.2,1.523-.32q1.625-.4,3.24-.835a2.257,2.257,0,0,1,1.561.161c.746.332,1.5.655,2.246.978.14.06.29.1.5.17" transform="translate(-15.821 -38.867)" fill="#fff"/>
    <path id="Path_13225" data-name="Path 13225" d="M186.968,5.21a5.028,5.028,0,0,1,2.695-2.117A17.123,17.123,0,0,1,194.1,2.5q2.27-.08,4.542-.084c3.534-.008,7.071-.069,10.6.031a19.135,19.135,0,0,1,9.927,2.781,15.607,15.607,0,0,1,4.284,4.2q2.832,3.94,5.727,7.836a2,2,0,0,0,.778.63c4.657,1.972,9.343,3.878,13.981,5.894a10.15,10.15,0,0,1,5.7,6.406c.133.4-.069.441-.4.44-2.083-.006-4.166,0-6.249,0-.694,0-.7,0-.7.7q0,1.74,0,3.479c0,.677,0,.679.673.679,2.178,0,4.355.009,6.533-.007.416,0,.6.087.571.537a15.291,15.291,0,0,0,0,1.715c.016.364-.107.486-.485.481-1.246-.019-2.493-.006-3.739-.006-3.756,0-7.511-.009-11.267.009-.472,0-.6-.134-.642-.592a11.345,11.345,0,0,0-8.179-10.378,11.89,11.89,0,0,0-14.608,6.366,11.057,11.057,0,0,0-.982,3.986.735.735,0,0,1-1.125.556c-.11-.079-.136-.329-.127-.5a12.291,12.291,0,0,1,3.114-7.692,13.025,13.025,0,0,1,8.27-4.437,2.4,2.4,0,0,0,2.1-2.372q.013-2.436,0-4.871c0-.324.054-.493.446-.542a2.01,2.01,0,0,0,1.463-3.233q-2.131-3.035-4.3-6.04a7.728,7.728,0,0,0-3.26-2.6,8.321,8.321,0,0,0-3.36-.66q-8.71.007-17.421-.008c-.453,0-.556.16-.554.569q.017,6.449.007,12.9c0,.662,0,.663-.675.663-7.417,0-14.833.017-22.249-.016a8.352,8.352,0,0,0-3.447.628,2.53,2.53,0,0,1-2.252-.028,19.209,19.209,0,0,0-2.588-.813,1.1,1.1,0,0,1,.114-.225c.128-.176.328-.321.4-.514.23-.637.735-.6,1.275-.6q13.586.013,27.172.006c.729,0,.729,0,.729-.7,0-3.758-.008-7.516.011-11.273,0-.47-.127-.606-.609-.6-1.893.026-3.787.011-5.68.011Z" transform="translate(-115.86 -1.685)" fill="#fff"/>
    <path id="Path_13226" data-name="Path 13226" d="M278.82,65.024H276.6c-.255,0-.513-.029-.507.36.006.365.252.332.486.332q2.217,0,4.434,0c.238,0,.49.024.493-.332,0-.381-.265-.357-.52-.357-.723,0-1.446,0-2.169,0" transform="translate(-194.803 -45.878)" fill="#fff"/>
    <path id="Path_13227" data-name="Path 13227" d="M108.912,19.175c-.146.013-.291.037-.437.038-1.593,0-3.187,0-4.78.007-.358,0-.471-.1-.578-.472a5.853,5.853,0,0,0-.829-1.786,11.073,11.073,0,0,0-3.667-3.014,31.671,31.671,0,0,0-4.033-2.308c-2.711-1.044-4.7-3.015-6.913-4.706a4.036,4.036,0,0,1-.575-.481A1.344,1.344,0,0,0,85.308,6.2c-1.475.766-3.012,1.442-4.4,2.344-1.634,1.066-3.138,2.325-4.687,3.514-.894.686-1.763,1.4-2.646,2.1-.455.361-.455.439.053.866l5.111-4.062.076.056a2.2,2.2,0,0,1-.093.333c-.836,1.814-1.68,3.626-2.51,5.443-.142.31-.293.4-.652.284-.9-.293-1.809-.539-2.719-.787a.435.435,0,0,1-.376-.5,12.451,12.451,0,0,0-.01-1.391,1.056,1.056,0,0,1,.5-1.064c2.572-1.718,4.34-4.2,6.331-6.461a2.079,2.079,0,0,1,1.433-.834c1.614-.164,3.22-.409,4.829-.616a2.788,2.788,0,0,1,1.722.373c4.412,2.4,8.693,5.008,12.905,7.73,2.763,1.785,5.568,3.508,8.353,5.26.138.087.271.182.407.273l-.029.113" transform="translate(-51.12 -3.814)" fill="#fff"/>
    <path id="Path_13228" data-name="Path 13228" d="M90.4,117.177c.418-.121,1.175-.31,1.905-.569a.752.752,0,0,0,.392-.542,5.93,5.93,0,0,1,2.265-4.225.756.756,0,0,0,.212-.586,5.237,5.237,0,0,0-9.29-2.381,4.747,4.747,0,0,0-.56,5.4c.951,1.885,2.575,2.8,5.076,2.9m2.326.073a6.152,6.152,0,0,1-5.937-.326,5.532,5.532,0,0,1-2.519-3.356,5.8,5.8,0,0,1,3.832-7.092,6,6,0,0,1,7.824,4.634c.793-.165,1.539-.328,2.288-.474.239-.047.478,0,.433.311a.484.484,0,0,1-.263.337c-.625.188-1.277.294-1.887.515a3.627,3.627,0,0,0-1.869,1.508,8.372,8.372,0,0,0-.813,1.212,4.809,4.809,0,0,0-.263,3.054,6.6,6.6,0,0,0,.965,2,3.985,3.985,0,0,0,1.757,1.5c.06.024.1.1.191.213H93.8l-.035-.091.807-.449a6.32,6.32,0,0,1-1.846-3.5" transform="translate(-59.312 -74.899)" fill="#fff"/>
    <path id="Path_13229" data-name="Path 13229" d="M346.028,117.2c4.387-.009,6.924-4.282,4.891-7.682a3.676,3.676,0,0,0-2.465-2.03c-.4-.073-.756-.375-1.156-.456a1.862,1.862,0,0,0-1.406.043c-.322.179-.822.02-1.2.138a5.049,5.049,0,0,0-2.776,2.178c-.07.109-.017.29-.08.407-.1.185-.307.327-.365.518a6.926,6.926,0,0,0-.317,1.441,4.454,4.454,0,0,0,.118,1.324,5.142,5.142,0,0,0,.484,1.359,5.014,5.014,0,0,0,4.272,2.76m.33.708a5.839,5.839,0,1,1,6-5.758,5.912,5.912,0,0,1-6,5.758" transform="translate(-240.186 -74.954)" fill="#fff"/>
    <path id="Path_13230" data-name="Path 13230" d="M39.371,38.592c-.834,0-1.668-.009-2.5,0-.3,0-.408-.1-.42-.4a2.95,2.95,0,0,1,5.743-1.123c.021.058.043.116.058.176.288,1.152.14,1.343-1.038,1.343H39.371" transform="translate(-25.715 -24.725)" fill="#fff"/>
    <path id="Path_13231" data-name="Path 13231" d="M150.271,50.586a10.9,10.9,0,0,1,1.178.525c.362.212.67.511,1.013.756.223.159.267.306.084.532-.665.821-1.314,1.655-1.984,2.472-.077.094-.317.193-.365.155-.631-.517-1.437-.861-1.78-1.673a2.044,2.044,0,0,1,1.854-2.767" transform="translate(-104.612 -35.692)" fill="#fff"/>
    <path id="Path_13232" data-name="Path 13232" d="M221.582,28.322c-.894.3-1.725.579-2.557.856q-1.141.379-2.285.752c-.238.078-.463.132-.563-.2s.115-.405.353-.483c1.239-.408,2.474-.829,3.72-1.218.349-.109.412-.264.282-.573s-.23-.64-.352-.958a.521.521,0,0,1,.17-.655q1.382-1.2,2.738-2.424c.212-.191.361-.235.579.008s.073.374-.1.526c-.773.683-1.537,1.374-2.32,2.047a.559.559,0,0,0-.212.753c.211.478.35.987.549,1.567" transform="translate(-152.509 -16.413)" fill="#fff"/>
    <path id="Path_13233" data-name="Path 13233" d="M129.728,135.993a1.045,1.045,0,1,0-1.053,1.028,1.04,1.04,0,0,0,1.053-1.028m1,1.445c-.257.386-.466.621-.837.213a.513.513,0,0,0-.459-.057,2.053,2.053,0,0,1-2.083-.355,2,2,0,0,1-.393-1.788.556.556,0,0,0-.14-.835c-.393-.334-.379-.513-.007-.692.112-.054.388-.018.429.059a.722.722,0,0,0,.937.313,2.166,2.166,0,0,1,2.059.622c.186.151.169.559.213.854a1.144,1.144,0,0,1-.022.55c-.168.445-.178.833.3,1.117" transform="translate(-89.268 -94.473)" fill="#fff"/>
    <path id="Path_13234" data-name="Path 13234" d="M30.33,124.618c-.666-.225-1.223-.4-1.77-.608-.09-.034-.162-.185-.188-.294-.191-.794-.361-1.593-.553-2.386a.516.516,0,0,1,.3-.677c.35-.173.678-.388,1.019-.579.413-.232.516-.2.588.261.164,1.051.3,2.105.451,3.159.044.318.087.636.153,1.125" transform="translate(-19.608 -84.62)" fill="#fff"/>
    <path id="Path_13235" data-name="Path 13235" d="M24.153,152.114a1.346,1.346,0,0,0,.412-.136,17.985,17.985,0,0,1,1.953-1.5,4.527,4.527,0,0,1,1.62-.317c.074-.01.237.2.26.329.063.346.064.7.109,1.052.032.243.1.482.154.759H24.344l-.191-.185" transform="translate(-17.041 -105.947)" fill="#fff"/>
    <path id="Path_13236" data-name="Path 13236" d="M139.917,50.186a12.913,12.913,0,0,1-1.908.091c-.457-.041-.206-.476-.161-.719a.405.405,0,0,1,.631-.324c.5.254.979.539,1.468.81-.01.047-.02.095-.03.142" transform="translate(-97.184 -34.691)" fill="#fff"/>
    <path id="Path_13237" data-name="Path 13237" d="M210.336,76.747c.977.117,2.17.243,3.356.411a2.168,2.168,0,0,0,1.452-.219c.751-.423,1.536-.786,2.3-1.194.242-.13.4-.134.538.118s.035.387-.2.506c-.868.439-1.716.922-2.6,1.321a2.485,2.485,0,0,1-1.18.182c-1.131-.1-2.258-.244-3.381-.409-.44-.064-.635.082-.73.484-.108.451-.279.886-.385,1.337a3.342,3.342,0,0,1-2.914,2.6c-1.479.3-2.953.648-4.4,1.065a5.761,5.761,0,0,0-1.583.881.429.429,0,0,1-.615-.076c-.055-.05.008-.316.1-.413a4.865,4.865,0,0,1,2.525-1.28q1.945-.493,3.915-.887a2.606,2.606,0,0,0,2.265-2.011c.152-.615.362-1.215.52-1.828.14-.542.24-.632,1.026-.589" transform="translate(-141.089 -53.381)"/>
    <path id="Path_13238" data-name="Path 13238" d="M142.786,84.2a4.976,4.976,0,0,1,3.168-1.3,15.749,15.749,0,0,1,4.227.389,28.007,28.007,0,0,0,6.264.827c.277-.012.354.124.367.362.015.274-.13.359-.377.341-1.068-.078-2.146-.094-3.2-.249-1.729-.255-3.438-.642-5.168-.9a5.839,5.839,0,0,0-4.6.857c-.382.288-.454-.126-.675-.326" transform="translate(-100.744 -58.464)"/>
    <path id="Path_13239" data-name="Path 13239" d="M49.362,82.65a3.217,3.217,0,0,1,.28-.791,8.691,8.691,0,0,1,.941-1.211.465.465,0,0,1,.452-.028.451.451,0,0,1,.09.44,9.873,9.873,0,0,1-.674.889,1.134,1.134,0,0,0,.428,1.931,2.136,2.136,0,0,1,1.2,1.405c.042.163-.028.486-.134.529-.274.111-.49,0-.56-.351a1.447,1.447,0,0,0-.907-1,1.881,1.881,0,0,1-1.114-1.818" transform="translate(-34.828 -56.85)"/>
    <path id="Path_13240" data-name="Path 13240" d="M278.82,65.024c.723,0,1.447,0,2.169,0,.255,0,.524-.024.52.358,0,.356-.256.331-.493.332q-2.217,0-4.434,0c-.234,0-.48.033-.486-.332-.006-.389.252-.36.507-.36h2.217" transform="translate(-194.803 -45.878)"/>
    <path id="Path_13241" data-name="Path 13241" d="M90.1,111.724a.5.5,0,0,0-.565-.5.461.461,0,0,0-.469.526.466.466,0,0,0,.507.493.493.493,0,0,0,.527-.522m.01,3.745c-.134-.092-.316-.311-.526-.341-.323-.046-.526.184-.519.515a.469.469,0,0,0,.5.5c.339,0,.507-.2.541-.675m3.971,0c-.13-.092-.309-.311-.518-.345a.431.431,0,0,0-.52.5.772.772,0,0,0,.492.494c.322.073.507-.173.546-.651m-.688-3.2c.478-.046.673-.212.67-.548a.465.465,0,0,0-.507-.493c-.334-.005-.565.211-.516.522.032.206.256.385.353.519m-1.378,6.617c-2.5-.1-4.125-1.02-5.076-2.9a4.746,4.746,0,0,1,.56-5.4,5.237,5.237,0,0,1,9.29,2.381.756.756,0,0,1-.212.586,5.929,5.929,0,0,0-2.265,4.225.753.753,0,0,1-.391.542c-.731.259-1.487.449-1.905.569" transform="translate(-60.921 -76.608)"/>
    <path id="Path_13242" data-name="Path 13242" d="M346.544,112.661a1.3,1.3,0,0,1-.073.4,1.759,1.759,0,0,0,.268,1.942.8.8,0,0,0,.533.389c.292.067.539.189.489.56-.034.254.092.36.356.36s.382-.107.353-.361c-.032-.29.1-.434.374-.551a1.724,1.724,0,0,0,1.031-1.678c-.017-.623-.453-1.022-.766-1.49-.686.056-.66-.386-.625-.847.021-.27-.156-.337-.4-.332s-.362.092-.354.366c.007.229,0,.554-.139.671a5.814,5.814,0,0,1-1.051.575m1.221,6.171a5.013,5.013,0,0,1-4.271-2.76,5.143,5.143,0,0,1-.485-1.359,4.446,4.446,0,0,1-.118-1.324,6.958,6.958,0,0,1,.317-1.441c.058-.191.266-.333.365-.518.063-.117.01-.3.08-.407a5.05,5.05,0,0,1,2.776-2.178c.38-.118.879.04,1.2-.138a1.862,1.862,0,0,1,1.406-.043c.4.08.756.382,1.156.456a3.676,3.676,0,0,1,2.465,2.03c2.032,3.4-.5,7.673-4.892,7.682" transform="translate(-241.924 -76.585)"/>
    <path id="Path_13243" data-name="Path 13243" d="M132.406,138.515a1.045,1.045,0,1,1-1.037-1.043,1.042,1.042,0,0,1,1.037,1.043" transform="translate(-91.946 -96.995)"/>
    <path id="Path_13244" data-name="Path 13244" d="M109.414,118.619c-.1-.135-.321-.312-.353-.519-.049-.312.182-.527.516-.522a.466.466,0,0,1,.507.494c0,.335-.192.5-.67.548" transform="translate(-76.945 -82.958)" fill="#fff"/>
    <path id="Path_13245" data-name="Path 13245" d="M110.106,131.155c-.039.477-.224.723-.546.651a.774.774,0,0,1-.491-.495.43.43,0,0,1,.52-.5c.21.034.388.253.518.345" transform="translate(-76.949 -92.289)" fill="#fff"/>
    <path id="Path_13246" data-name="Path 13246" d="M96.62,131.152c-.034.471-.2.676-.541.675a.469.469,0,0,1-.5-.5c-.007-.331.2-.561.519-.515.21.03.392.248.526.34" transform="translate(-67.434 -92.292)" fill="#fff"/>
    <path id="Path_13247" data-name="Path 13247" d="M96.611,118.069a.492.492,0,0,1-.527.522.466.466,0,0,1-.507-.493.461.461,0,0,1,.469-.526.5.5,0,0,1,.565.5" transform="translate(-67.434 -82.953)" fill="#fff"/>
    <path id="Path_13248" data-name="Path 13248" d="M355.178,119.817a1.058,1.058,0,0,0,2.116,0,1.092,1.092,0,0,0-1.06-1.045,1.075,1.075,0,0,0-1.056,1.042m-.488-1.153a5.84,5.84,0,0,0,1.051-.575c.142-.117.146-.442.139-.671-.008-.273.1-.36.354-.365s.416.062.4.332c-.035.461-.061.9.625.847.312.468.75.867.766,1.49a1.723,1.723,0,0,1-1.031,1.677c-.278.118-.406.262-.373.551.029.254-.089.362-.354.361s-.389-.105-.355-.36c.05-.371-.2-.493-.489-.56a.8.8,0,0,1-.533-.388,1.759,1.759,0,0,1-.268-1.942,1.3,1.3,0,0,0,.072-.4" transform="translate(-250.069 -82.588)" fill="#fff"/>
    <path id="Path_13249" data-name="Path 13249" d="M356.982,123.948a1.074,1.074,0,0,1,1.056-1.042,1.09,1.09,0,0,1,1.059,1.045,1.058,1.058,0,0,1-2.116,0" transform="translate(-251.873 -86.718)"/>
  </g>
</svg>
