<svg xmlns="http://www.w3.org/2000/svg" width="122.951" height="90.882" viewBox="0 0 122.951 90.882">
  <g id="Group_3154" data-name="Group 3154" transform="translate(-555.213 -319.804)">
    <path id="Path_13117" data-name="Path 13117" d="M658.131,399.263q-6.918-.031-13.836-.051c-1.423,0-2.846-.006-4.269-.013-.27,0-.539-.023-.907-.041,0-.923-.017-1.747.007-2.571.015-.516.2-.681.738-.7.618-.021,1.239-.013,1.858-.014q8.3-.015,16.59-.034a2.184,2.184,0,0,1,1.351.389c.71.5,1.459.954,2.194,1.423.218.14.44.286.406.584s-.307.377-.544.456a11.071,11.071,0,0,1-3.587.57m.537,8.817a.775.775,0,0,1-.946-.475c-.067-.145-.113-.3-.166-.45q-.891-2.563-1.779-5.127a3.658,3.658,0,0,1-.094-.5h2.326a2.715,2.715,0,0,1,.162.432q.482,2.458.949,4.921a2.722,2.722,0,0,1,.056.339.744.744,0,0,1-.509.863m-4.045-2.124c-.674-1.435-1.347-2.871-2.047-4.361.4-.184.637-.136.752.193.479,1.37.947,2.745,1.42,4.117Zm-17.739-6.912c-.6.16-39.538.025-40.289-.129,0-.775-.019-1.57.009-2.363a.638.638,0,0,1,.636-.612,4.371,4.371,0,0,1,.55-.016l37.813-.032c1.242,0,1.278.037,1.28,1.275,0,.636,0,1.272,0,1.878m-53.1-5.357c-2.134,0-4.27-.061-6.4-.053a4.207,4.207,0,0,1-3.955-2.607c-.277-.537-.159-.684.453-.681q8.264.041,16.529.08c3.076.017,6.151.066,9.227.068,2.571,0,5.141-.04,7.712-.062.25,0,.5,0,.832,0a4.343,4.343,0,0,0,2.366,3.2,5.543,5.543,0,0,1-.586.074q-13.085-.007-26.172-.02M594.346,399c-7.42-.033-14.739-.06-22.056-.146-.1,0-.2-.088-.388-.177a3.911,3.911,0,0,1,.373-.5c.818-.772,1.653-1.527,2.468-2.3a.9.9,0,0,1,.868-.243,11.326,11.326,0,0,0,1.911.2c5.144.037,10.288.053,15.431.074,1.268.005,1.389.119,1.393,1.368,0,.544,0,1.089,0,1.723m-13.98,6.839-.11-.039a2.753,2.753,0,0,1,.067-.3c.435-1.276.868-2.552,1.313-3.825.172-.491.2-.492.84-.353-.709,1.519-1.41,3.018-2.11,4.516m-1.137-4.034q-.952,2.762-1.915,5.519a2.57,2.57,0,0,1-.122.32.775.775,0,0,1-.909.435.711.711,0,0,1-.529-.845c.078-.544.208-1.079.31-1.619.249-1.327.492-2.656.743-3.984a3.567,3.567,0,0,1,.128-.4h2.436c-.057.232-.084.41-.143.577m-9.039-5.836a19.347,19.347,0,0,1-3.261-2.951,27.434,27.434,0,0,1-5.143-8.887,40.11,40.11,0,0,1-2-8.145,1.623,1.623,0,0,1,.665-1.669q4.9-3.907,9.772-7.848a4.855,4.855,0,0,0,.671-.589,7.228,7.228,0,0,0,.541-.881,26.2,26.2,0,0,0,5.522,12.033c-.145.182-.261.346-.4.493q-2.608,2.841-5.222,5.675a4.623,4.623,0,0,0-1.185,2.065,3.26,3.26,0,0,0-.128.877,13.629,13.629,0,0,0,1.567,6.149,15.91,15.91,0,0,0,.959,1.424.8.8,0,0,1-.081,1.219c-.34.341-.693.671-1.057.985a.8.8,0,0,1-1.226.049m-3.346.364a2.063,2.063,0,0,1-.278-.15,22.368,22.368,0,0,1-7.6-9.339,19.8,19.8,0,0,1-1.54-7.851,6.393,6.393,0,0,1,.091-.889,2.866,2.866,0,0,1,.186-.472c.087.339.145.522.18.71a36.519,36.519,0,0,0,4.247,11.868,25.327,25.327,0,0,0,4.451,5.668,2.763,2.763,0,0,0,.4.267Zm-.751-43.6a17.236,17.236,0,0,1,.06-3.984,5,5,0,0,1,2.631-3.67c.643-.354,1.276-.728,1.917-1.086.2-.111.4-.2.646-.317a10.2,10.2,0,0,0,3.677,2.528,4.2,4.2,0,0,1,1.917,1.9,2.4,2.4,0,0,1,.091.283,3.693,3.693,0,0,1-.452-.166c-.712-.372-1.413-.765-2.133-1.121a2.707,2.707,0,0,0-.679-.139c-.034.048-.067.1-.1.147a2.084,2.084,0,0,0,.282.487c.309.306.643.589.981.863,2.124,1.717,4.275,3.4,6.369,5.154a8.64,8.64,0,0,1,2.539,3.384,8.523,8.523,0,0,1,.6,3.1,17.2,17.2,0,0,1-4.343,11.877c-.1.121-.228.221-.407.392-.116-.207-.216-.372-.306-.542-1.042-1.993-2.067-3.995-3.131-5.975A15.9,15.9,0,0,0,571.924,361q-1.107-.878-2.228-1.735a8.506,8.506,0,0,1-3.6-6.527m6.594-26.073c.155-.281.342-.545.506-.821a8.479,8.479,0,0,1,6.278-4.135,14.081,14.081,0,0,1,8.2,1.161,6.849,6.849,0,0,1,.661.367c.032.019.039.077.058.117-.016.04-.031.11-.052.112-.773.075-1.546.175-2.321.2a2.648,2.648,0,0,1-.841-.273c-.975-.339-1.947-.683-2.924-1.011a4.357,4.357,0,0,0-.647-.114l-.069.139a1.612,1.612,0,0,0,.3.253c.6.29,1.207.559,1.805.851a5.56,5.56,0,0,1,.57.365c-.171.391-.509.356-.771.456a1.894,1.894,0,0,1-1.939-.269,8.766,8.766,0,0,0-1.518-.8,4.751,4.751,0,0,0-.761-.221l-.075.133a2.381,2.381,0,0,0,.285.3c.478.355.981.68,1.441,1.055.361.293.315.488-.1.719a1.294,1.294,0,0,1-1.852-.226c-.343-.306-.678-.62-1.027-.918a3,3,0,0,0-.426-.255l-.131.118c.122.2.236.4.367.6.233.341.491.667.712,1.014a.616.616,0,0,1-.187.994,9.509,9.509,0,0,1-.807.527c-.463.27-.624.225-.843-.28-.2-.462-.355-.945-.536-1.415-.062-.159-.145-.309-.289-.614a1.858,1.858,0,0,0-.128.5c.089.613.171,1.229.307,1.832a1.41,1.41,0,0,1-.536,1.582c-.326.248-.62.533-1.021.88a1.78,1.78,0,0,1-.213-.527c0-.64.032-1.281.058-1.923.008-.2.035-.39.055-.587l-.225-.064c-.1.215-.211.424-.287.646a9.251,9.251,0,0,0-.463,3.052,1.7,1.7,0,0,1-.4,1.131c-.389.482-.745.99-1.127,1.479a5.185,5.185,0,0,1-.48.452c-.049-.356-.093-.569-.106-.785a10.549,10.549,0,0,1,1.5-5.787m17.947-.5a5.525,5.525,0,0,1,1.106,2.194c.164.645-.02.862-.673.831-.389-.016-.777-.055-1.166-.073a.8.8,0,0,1-.8-.549,7.9,7.9,0,0,0-1.592-2.862c-.04-.045-.034-.126-.06-.237a2.508,2.508,0,0,1,3.183.7m.8-.846c.693.167,1.439.3,1.8,1.024.39.773.674,1.6,1,2.4a.549.549,0,0,1,.026.134c.076.545-.024.864-.3.97a1.1,1.1,0,0,1-1.1-.54,1.211,1.211,0,0,1-.124-.389,6.68,6.68,0,0,0-1.308-3.212,1.017,1.017,0,0,1-.1-.243l.1-.146m-7.52.765c.544-.175,1.1-.3,1.7-.464a3.9,3.9,0,0,1,.792.369,4.939,4.939,0,0,1,1.7,2.449c.168.52.042.772-.477.95-.434.15-.876.276-1.32.394a.652.652,0,0,1-.869-.352,13.408,13.408,0,0,0-1.751-2.63c-.292-.35-.212-.576.225-.717m.538,3.406a2.954,2.954,0,0,1,.224.563c-.118.169-.206.406-.375.513-.617.392-1.253.756-1.9,1.1-.327.175-.557.08-.8-.3s-.458-.793-.687-1.188c-.286-.5-.585-.982-.856-1.485-.283-.524-.213-.792.288-1.082.4-.229.809-.429,1.223-.622a.966.966,0,0,1,1.292.268c.547.729,1.068,1.48,1.585,2.231M576.74,331.2a.905.905,0,0,1,.215-1.136,15.2,15.2,0,0,1,1.393-1.122.534.534,0,0,1,.88.158c.585.96,1.137,1.941,1.7,2.918a2.428,2.428,0,0,1,.128.4,3.447,3.447,0,0,1-.351.59c-.44.5-.9.979-1.364,1.459-.36.376-.618.389-.875-.057-.605-1.052-1.166-2.131-1.723-3.211m.053,7.566c-.052.1-.114.2-.2.341a3.442,3.442,0,0,1-.487-.42,11.365,11.365,0,0,1-2.044-4.162,1.919,1.919,0,0,1,.4-1.8c.252-.3.485-.611.749-.9.367-.4.583-.362.814.116.26.535.475,1.1.767,1.611.327.574.709,1.119,1.089,1.663a1,1,0,0,1,.147,1.092c-.406.82-.82,1.637-1.233,2.452m-4.866-1.868a4.609,4.609,0,0,1,1.211-2.023c.351.871.677,1.679,1.016,2.522l-2.227-.5m.106,2.494a1.241,1.241,0,0,1,1.848-.562,4.777,4.777,0,0,1,1.075.943,8.036,8.036,0,0,1,1.912,4.257,2.149,2.149,0,0,1,.029.41c-.024.573-.314.816-.854.631a7.554,7.554,0,0,1-3.364-2.047,3.985,3.985,0,0,1-.958-2.634,5.632,5.632,0,0,1,.312-1m23.215-3.187c.12.456.044.579-.431.673-.605.122-1.221.2-1.836.266a.822.822,0,0,1-.941-.629c-.182-.545-.354-1.092-.534-1.636-.068-.2-.146-.4-.258-.713-.086.181-.141.239-.134.287.146.927.26,1.861.464,2.776a1.071,1.071,0,0,0,1.078.82,8.633,8.633,0,0,0,1.5-.092c.75-.1,1.49-.277,2.238-.381a1.243,1.243,0,0,1,1.474,1.174,2.216,2.216,0,0,1-.936,2.033,4.456,4.456,0,0,1-2.556.915,14.155,14.155,0,0,1-2.259-.062,1.834,1.834,0,0,1-.859-.39,1.029,1.029,0,0,1-.287-1.5c.077-.136.159-.269.251-.424a1.218,1.218,0,0,0-1.117.826c-.222.5.03.938.194,1.484a2.447,2.447,0,0,1-.592.118,13.11,13.11,0,0,1-1.845-.192A2.488,2.488,0,0,0,585,342.8c-.265.429-.5.877-.739,1.321a1.241,1.241,0,0,1-1.59.719,4.455,4.455,0,0,1-3.117-2.585.95.95,0,0,1,.156-1.193,2.935,2.935,0,0,0,.624-1.562c.164-.794.449-1.562.552-2.378.03-.236.261-.442.317-.681a2.175,2.175,0,0,0,.065-.938,1.188,1.188,0,0,1,.4-1.169,11.623,11.623,0,0,1,3.543-2.582,27.554,27.554,0,0,1,3.007-1.182,7.131,7.131,0,0,1,3.746-.117,2.433,2.433,0,0,1,1.693,1.492,5.233,5.233,0,0,0-.605.039,2.558,2.558,0,0,0-.723.2c-.122.064-.167.274-.246.418a1.537,1.537,0,0,0,.413.139,1.849,1.849,0,0,0,.4-.106,1.232,1.232,0,0,1,1.575.858c.3.892.546,1.8.784,2.711m3.874,3.5c.058-.22.1-.445.167-.738.283,0,.509-.008.734,0,1.331.054,2.66.125,3.99.164a3.251,3.251,0,0,1,3.23,2.328,8.185,8.185,0,0,1,.46,2.417,24.39,24.39,0,0,1-.881,7.356c-.086.3-.208.588-.34.953a33.588,33.588,0,0,0-7.134-2.988c.355-2.06,1.345-3.833,1.95-5.727l-.176-.1a7.23,7.23,0,0,0-.662.912c-.708,1.364-1.391,2.741-2.073,4.117-.238.479-.226.486-.795.357a1.2,1.2,0,0,1-.021-.315,17.578,17.578,0,0,0-.057-4.8c-.012-.137-.024-.275-.046-.411a1.48,1.48,0,0,1,.6-1.717,3,3,0,0,0,1.055-1.812m-3.327,12.7c.428,1.292-.2,2.176-1.387,2.122a3.611,3.611,0,0,1-1.668-.479c1.08-.527,2.228-.707,3.055-1.643m-2.74-5.756a4.881,4.881,0,0,1-2.385.016,16.3,16.3,0,0,1-1.689-.561c-.143-.049-.282-.111-.545-.215a4.617,4.617,0,0,0,1.85,2.522.979.979,0,0,1-.938.34c-.768-.123-1.542-.233-2.294-.427-.782-.2-.914-.56-.64-1.34.145-.41.253-.831.381-1.247a7.283,7.283,0,0,1,.232-.717.875.875,0,0,1,1.2-.563,11.342,11.342,0,0,0,4.806.615c.334-.032.668-.078,1.046-.124.106.965-.218,1.48-1.025,1.7m-9.289,32.433c-.514-.557-.509-.57-.107-1.223.225-.365.469-.717.747-1.14.238.239.417.409.584.59a42.288,42.288,0,0,0,9.15,7.568,22.12,22.12,0,0,0,8.543,3.11,2.06,2.06,0,0,1,.254.064l.045.185c-.483.11-.962.257-1.451.321a12.351,12.351,0,0,1-5.024-.6,19.471,19.471,0,0,1-5.616-2.717,41.549,41.549,0,0,1-7.124-6.154m-3-4.961c.214-.293.469-.555.777-.907l1.843,2.275c-.379.588-.734,1.136-1.12,1.731a9.658,9.658,0,0,1-1.578-2.662.532.532,0,0,1,.078-.437m1.11,12.715c.748.345,1.526.626,2.29.937.164.067.329.137.648.27a3.7,3.7,0,0,1-.573.12q-5.02-.021-10.041-.053a1.768,1.768,0,0,1-1.753-1.1,1.848,1.848,0,0,1,.356-2.106q1.385-1.531,2.792-3.039a2.8,2.8,0,0,1,.45-.306,1.883,1.883,0,0,1,.177.4,3.3,3.3,0,0,0,1.171,1.969,16.987,16.987,0,0,0,4.484,2.9m29.259-29.727a1.364,1.364,0,0,1,.146.194,12.432,12.432,0,0,0-1.147.961c-1.342,1.415-2.689,2.828-3.977,4.292-2.017,2.292-3.992,4.623-5.978,6.943-.339.4-.641.824-.989,1.272a1.42,1.42,0,0,0,1.432-.052,7.837,7.837,0,0,0,2.49-1.819c1.164-1.267,2.261-2.6,3.419-3.87,1.436-1.58,2.9-3.136,4.363-4.686a11.027,11.027,0,0,1,1.192-1.044,6.528,6.528,0,0,1,8.1-.144c.484.35.99.666,1.493.988a.974.974,0,0,1,.474,1.18,14.987,14.987,0,0,1-.5,1.572q-.758,1.847-1.583,3.665c-.263.578-.418.6-.942.223-.486-.346-.954-.718-1.433-1.073a6.337,6.337,0,0,0-6.47-.674,6.492,6.492,0,0,0-3.634,3.1,6.6,6.6,0,0,0-.695,3.471c.107,1.65.251,3.3.4,4.944a5.212,5.212,0,0,1-.123,1.9,4.475,4.475,0,0,0-.018,1.7c.136,1.069.332,2.132.531,3.192a1.035,1.035,0,0,1-.157.846c-.2.282-.373.58-.584.851a3.81,3.81,0,0,1-3.033,1.514,12.4,12.4,0,0,1-5.477-1.166,40.345,40.345,0,0,1-12.824-9.13c-.157-.166-.3-.344-.483-.555a5.619,5.619,0,0,1,.307-.527,29.125,29.125,0,0,1,4.148-4.863c.41-.357.487-.685.289-1.023a.7.7,0,0,0-.949-.293,3.29,3.29,0,0,0-.657.493,30.653,30.653,0,0,0-3.711,4.339c-.134.179-.278.351-.414.522a5.353,5.353,0,0,1-1.668-2.3c.633-1.115,1.311-2.183,1.864-3.313a19.858,19.858,0,0,0,2.032-7.952,9.067,9.067,0,0,0-1.721-6.036c-.248-.33-.457-.688-.681-1.035a.776.776,0,0,1-.042-.2,4.639,4.639,0,0,1,.515.1,16.789,16.789,0,0,0,4.807.8,3.1,3.1,0,0,1,.975.288c1.011.374,2.011.776,3.028,1.132a4.378,4.378,0,0,0,1.082.194,2.824,2.824,0,0,0,3.133-2.753,4.094,4.094,0,0,0-.44-2.065.833.833,0,0,1,.11-1.01,37.982,37.982,0,0,1,6.887,2.88,39.161,39.161,0,0,0-7.939,6.232,35.812,35.812,0,0,0-6.038,8.26c1.046-.068,1.879-.119,2.5-.958,1.127-1.535,2.253-3.077,3.486-4.526a39.082,39.082,0,0,1,9.216-7.8,1.443,1.443,0,0,1,1.551-.071,19.056,19.056,0,0,1,4.342,2.894m18.569,7.35a14.61,14.61,0,0,0,1.47-1.029,14.221,14.221,0,0,0,1.187-1.357,2.556,2.556,0,0,1-2.657,2.386m-4.236,4.589a8.6,8.6,0,0,1-.817,1.843.854.854,0,0,1-.857.331,3.662,3.662,0,0,1-2.469-1.194,1.63,1.63,0,0,1-.3-.878,2.041,2.041,0,0,1,.448-1.264l3.992,1.162m-1.739-7.217c.071-.477.138-.933.22-1.492a8.41,8.41,0,0,1,2.883.6.732.732,0,0,1,.48.619c.031.4.008.807.008,1.315l-3.591-1.046m3.307,2.473c-.074.324-.121.586-.2.841-.2.66-.406,1.314-.606,1.972-.081.269-.206.445-.536.395a13.976,13.976,0,0,1-3.638-1.045c.412-1.108.794-2.131,1.208-3.245l3.768,1.082m33.446,23.8c-.183.015-.367.01-.552.01H647.948v.041H635.959c-1.146,0-1.245-.132-.967-1.241a9.754,9.754,0,0,0,.255-3.417,2.416,2.416,0,0,0-3.449-2.1c-.932.379-1.819.873-2.716,1.334a18.073,18.073,0,0,1-4.338,1.733,12.2,12.2,0,0,1-2.044.179.97.97,0,0,1-.856-.5,5.33,5.33,0,0,1-.829-1.95c-.06-.294-.047-.555.256-.707a1.414,1.414,0,0,0,.741-1.563q-.184-2.093-.374-4.184c-.008-.092-.029-.182-.038-.273-.1-.889.055-1.078.943-1.084.987-.008,1.975.014,2.962-.01a.992.992,0,0,1,.9.485,10.124,10.124,0,0,0,1.361,1.448,3.335,3.335,0,0,0,3.8.492,5.017,5.017,0,0,0,2.534-2.033c.212-.376.523-.386.877-.386q3.687.007,7.372,0c2.159,0,4.318.012,6.477-.008a2.683,2.683,0,0,1,1.927.753q4.908,4.484,9.835,8.947a3.622,3.622,0,0,0,.3.281,2.448,2.448,0,0,1,.829,2.661,1.2,1.2,0,0,1-1.229,1.084M620.9,384.2a16.031,16.031,0,0,0,1.232,1.4,14.1,14.1,0,0,0,1.439,1.021A2.589,2.589,0,0,1,620.9,384.2m1.041,8.979c.964-.019,1.928.024,2.893.019a12.2,12.2,0,0,0,5.341-1.144,12.066,12.066,0,0,0,1.988-1.218,2.032,2.032,0,0,1,1.321-.436c3.605.005,7.211-.006,10.815-.012q7.579-.015,15.155-.031a4.79,4.79,0,0,1,.823.034c.344.061.5.319.318.608-.482.778-.991,1.543-1.535,2.281a1.222,1.222,0,0,1-1.078.338c-1.676-.005-3.352,0-5.028,0q-13.363-.033-26.728-.07c-1.928-.007-3.857-.025-5.786-.041-.18,0-.361-.02-.54-.031l0-.15c.682-.05,1.361-.131,2.043-.144m-2.906-17.354a.533.533,0,0,1,.709.467c.179,1.061.326,2.128.455,3.2a.57.57,0,0,1-.22.449c-.5.312-1.024.582-1.66.933l-1.22-4.144a7.9,7.9,0,0,1,1.936-.9m-6.62,7a3.144,3.144,0,0,1-.409.155c-.6.137-1.2.274-1.813.386-.441.08-.557.026-.643-.4-.172-.852-.329-1.71-.427-2.572-.065-.566.131-.789.675-.952.473-.141.955-.26,1.411-.383.414,1.29.8,2.5,1.207,3.762m4.533-1.429a17.142,17.142,0,0,1-3,1.084c-.229-.559-.471-1.07-.65-1.6-.2-.607-.352-1.233-.52-1.852-.072-.266-.057-.5.251-.623.874-.339,1.745-.681,2.726-1.063l1.195,4.057m-5.035-4.5c-.856.239-1.727.429-2.67.661-.053-.262-.091-.392-.1-.525-.151-1.528-.312-3.056-.443-4.588a6.4,6.4,0,0,1,.728-3.792,3.324,3.324,0,0,1,1.21-1.289,15.144,15.144,0,0,1,1.695-.9,4.079,4.079,0,0,1,3.649.175,5.019,5.019,0,0,1,2.965,4.39c.031.641.08,1.283.154,1.921a.9.9,0,0,1-.49.956,25.143,25.143,0,0,1-6.693,2.994m-2.926-24.552c.21-1.314.389-2.635.581-3.953.082-.561.232-.7.8-.726.183-.009.367,0,.551,0q22.323,0,44.646.01a5.437,5.437,0,0,1,1.687.249,3.051,3.051,0,0,1,2.207,2.871c.091,1.374.107,2.755.094,4.132q-.03,3.274-.15,6.544c-.047,1.32.087.967-.922,1.628a26.2,26.2,0,0,0-4.446,3.577,7.764,7.764,0,0,0-1.693,2.409,2.167,2.167,0,0,0-.124,1.531c.325-.314.571-.546.812-.784a38.171,38.171,0,0,1,4.98-4.338c.433-.3.893-.561,1.348-.828a1.507,1.507,0,0,1,1.515-.046q6.227,3.1,12.452,6.208a3.04,3.04,0,0,1,1.387,1.382,10.4,10.4,0,0,1,.51,8.6,20.537,20.537,0,0,1-1.89,3.432c-1.892,3.2-3.756,6.422-5.631,9.633a10.784,10.784,0,0,1-2.082,2.553c-.511.464-.776.492-1.345.128q-1.218-.778-2.424-1.58c-.58-.386-.658-.722-.276-1.333a19.172,19.172,0,0,0,2.016-4.138,9.672,9.672,0,0,0,.57-3.172,4.321,4.321,0,0,0-1.437-3.306q-4.053-3.682-8.09-7.384c-.8-.727-1.611-1.436-2.4-2.172a4.7,4.7,0,0,0-3.376-1.3c-4.272.021-8.544.008-12.816.008h-.908c.115-.375.179-.635.273-.882a20.081,20.081,0,0,1,1.962-3.861,17.39,17.39,0,0,0,1.992-3.995,10.681,10.681,0,0,0,.513-4.415,5.856,5.856,0,0,0-1.2-2.9,11.293,11.293,0,0,0-2.771-2.756,4.939,4.939,0,0,0-1.216-.628,2.286,2.286,0,0,0-2.906,1.3,5.838,5.838,0,0,0-.387,2.431,16.479,16.479,0,0,1-.338,3.489,12.478,12.478,0,0,1-.378,1.25,1.534,1.534,0,0,1-.227.424c-.315.415-.676.387-.892-.09-.2-.439-.342-.9-.525-1.345a1.859,1.859,0,0,0-1.287-1.156c-1.445-.362-2.9-.683-4.352-1.022-.82.207-1.356-.266-1.939-.738a7.3,7.3,0,0,0-3.424-1.685,6.809,6.809,0,0,0-3.272.213,2.713,2.713,0,0,1-2.737-.483c-.783-.6-1.634-1.1-2.466-1.637a1.219,1.219,0,0,1-.577-1.354m52.29,53.589a3.915,3.915,0,0,1-.306-1.507,3.847,3.847,0,0,1,.16-1.092l.008-.025c.019-.06.037-.122.058-.182a4.167,4.167,0,0,1,1.77-2.263c.023-.013.044-.028.066-.043a1.108,1.108,0,0,1,.588-.477c.17-.069.335-.147.5-.229,1.113-.755,2.18-1.573,3.241-2.4.432-.64.852-1.29,1.243-1.951,1.8-3.045,3.192-6.346,5.7-8.779.736-1.181,1.488-2.351,2.149-3.571a12.628,12.628,0,0,0,.293-12.157,4.68,4.68,0,0,0-2.09-2.217c-.449-.228-.869-.515-1.321-.74-3.7-1.839-7.4-3.68-11.117-5.493a.909.909,0,0,1-.605-.991c.081-2.432.143-4.867.165-7.3.012-1.354,0-2.714-.12-4.06a5.161,5.161,0,0,0-2.948-4.361,6.89,6.89,0,0,0-3.206-.652q-22.047.015-44.1.007c-.229,0-.459,0-.688,0-.728-.02-.92-.209-.966-.955-.022-.366-.025-.735-.053-1.1a8.037,8.037,0,0,0-1.011-3.548,4.643,4.643,0,0,0-4.238-2.586c-1.745.019-3.491-.027-5.237-.058a2.633,2.633,0,0,1-.728-.135c-.476-.15-.935-.358-1.417-.482-.274-.071-.449-.155-.528-.444a24.966,24.966,0,0,0-1.736-4.96c1.274-.882,1.159-2.116.846-3.36a14.248,14.248,0,0,0-.7-1.94,3.929,3.929,0,0,0-3.206-2.5,2,2,0,0,1-.866-.369,14.882,14.882,0,0,0-9.681-3.2,10.625,10.625,0,0,0-9.4,5.039,12.678,12.678,0,0,0-1.959,10.242,1.827,1.827,0,0,1-.022.874,3.183,3.183,0,0,0-.1,1.631,17.462,17.462,0,0,1,.464,2.981,11.174,11.174,0,0,0,.244,1.239c-.228.123-.426.231-.626.337-.957.5-1.926.975-2.868,1.5A5.948,5.948,0,0,0,564.227,347a13.362,13.362,0,0,0-.43,7.134,9.858,9.858,0,0,0,4.016,6.588,2.47,2.47,0,0,1,1.2,2.654.572.572,0,0,0,0,.137,1.954,1.954,0,0,1-.893,1.81c-2.667,2.107-5.307,4.247-7.954,6.378-.858.691-1.73,1.369-2.563,2.089a6.343,6.343,0,0,0-2.312,4.254,17.809,17.809,0,0,0,.147,4.4,22.5,22.5,0,0,0,3.489,9.033,23.928,23.928,0,0,0,2.974,3.634,31.219,31.219,0,0,0,6.458,4.9,7.669,7.669,0,0,0,4.117,1.162q.654-.013,1.309.009c.658.021.813.214.709.858-.036.227-.083.453-.128.677-.274,1.4-.579,2.789-.817,4.192a2.99,2.99,0,0,0,3.346,3.45,9.4,9.4,0,0,0,1.548-.334,5.985,5.985,0,0,0,4.026-3.377c.688-1.528,1.424-3.035,2.123-4.559a1.309,1.309,0,0,1,1.345-.867c.16.007.321,0,.482,0q4.926.026,9.853.05,22.047.084,44.095.162c2.894.011,5.788.031,8.682.023a1.4,1.4,0,0,1,1.444.933c.342.8.736,1.582,1.1,2.375a4.1,4.1,0,0,1,.158.533c-.294,0-.5.01-.7,0-6.539-.344-13.083-.434-19.63-.4-9.257.053-18.509.265-27.747.9a84.98,84.98,0,0,0-9.172,1.01,19.512,19.512,0,0,0-2.39.633c-.207.065-.358.311-.534.475.169.169.31.407.514.492a6.011,6.011,0,0,0,1.38.417c1.746.271,3.493.562,5.25.737,5.26.526,10.541.72,15.823.8,5.419.082,10.839.005,16.259.054,5.879.053,11.757.187,17.636.251a92.235,92.235,0,0,0,10.12-.242,3.106,3.106,0,0,0,2.4-1.421,3.153,3.153,0,0,0,.374-2.451,2.2,2.2,0,0,1-.052-.606"/>
    <path id="Path_13118" data-name="Path 13118" d="M644.253,354.477a1.135,1.135,0,0,0,1.17-1.1,1.151,1.151,0,1,0-1.17,1.1m1.171,9.359a1.15,1.15,0,1,0-1.188,1.15,1.128,1.128,0,0,0,1.188-1.15M623.652,353.3a1.157,1.157,0,1,0-1.173,1.174,1.144,1.144,0,0,0,1.173-1.174m12.969,11.684a1.153,1.153,0,1,0,.033-2.306,1.153,1.153,0,1,0-.033,2.306m.008-12.831a1.161,1.161,0,1,0,.018,2.323,1.161,1.161,0,0,0-.018-2.323M647.5,368.173c.325-.314.571-.546.812-.784a38.162,38.162,0,0,1,4.98-4.337c.433-.3.893-.562,1.348-.829a1.507,1.507,0,0,1,1.515-.046q6.225,3.1,12.451,6.208A3.043,3.043,0,0,1,670,369.768a10.394,10.394,0,0,1,.509,8.6,20.458,20.458,0,0,1-1.889,3.432c-1.892,3.2-3.756,6.422-5.631,9.633a10.792,10.792,0,0,1-2.082,2.553c-.511.464-.776.492-1.345.128q-1.22-.778-2.425-1.579c-.58-.387-.657-.723-.275-1.333a19.262,19.262,0,0,0,2.016-4.139,9.671,9.671,0,0,0,.569-3.172,4.317,4.317,0,0,0-1.436-3.306q-4.053-3.682-8.09-7.384c-.8-.727-1.611-1.436-2.4-2.172a4.692,4.692,0,0,0-3.375-1.3c-4.272.021-8.544.008-12.816.008h-.908c.115-.375.178-.635.273-.882A20.019,20.019,0,0,1,632.654,365,17.418,17.418,0,0,0,634.646,361a10.7,10.7,0,0,0,.513-4.415,5.877,5.877,0,0,0-1.2-2.9,11.311,11.311,0,0,0-2.771-2.756,4.942,4.942,0,0,0-1.216-.628,2.289,2.289,0,0,0-2.907,1.3,5.854,5.854,0,0,0-.386,2.431,16.43,16.43,0,0,1-.339,3.49,12.636,12.636,0,0,1-.377,1.25,1.545,1.545,0,0,1-.227.423c-.315.415-.676.387-.892-.09-.2-.438-.342-.9-.525-1.345a1.859,1.859,0,0,0-1.287-1.155c-1.445-.362-2.9-.684-4.352-1.022-.821.206-1.356-.267-1.94-.739a7.275,7.275,0,0,0-3.422-1.684,6.8,6.8,0,0,0-3.272.212,2.71,2.71,0,0,1-2.737-.483c-.783-.6-1.635-1.105-2.466-1.637a1.218,1.218,0,0,1-.577-1.354c.21-1.314.389-2.634.581-3.952.082-.562.232-.7.8-.727.183-.009.367,0,.55,0q22.325,0,44.647.01a5.434,5.434,0,0,1,1.687.249,3.051,3.051,0,0,1,2.206,2.871c.092,1.374.108,2.755.1,4.132q-.031,3.274-.15,6.544c-.047,1.32.087.967-.922,1.628a26.213,26.213,0,0,0-4.446,3.577,7.745,7.745,0,0,0-1.692,2.409,2.168,2.168,0,0,0-.124,1.531" transform="translate(4.717 2.445)" fill="#fff"/>
    <path id="Path_13119" data-name="Path 13119" d="M642.176,383.369H630.187c-1.146,0-1.245-.133-.967-1.241a9.761,9.761,0,0,0,.255-3.418,2.416,2.416,0,0,0-3.449-2.1c-.932.38-1.819.874-2.716,1.335a18.074,18.074,0,0,1-4.338,1.733,12.084,12.084,0,0,1-2.045.178.966.966,0,0,1-.855-.494,5.309,5.309,0,0,1-.83-1.951c-.06-.294-.047-.554.256-.707a1.412,1.412,0,0,0,.741-1.562q-.184-2.093-.374-4.184c-.008-.092-.029-.182-.038-.273-.1-.889.055-1.078.941-1.084.988-.008,1.976.014,2.963-.01a.99.99,0,0,1,.9.485,10.117,10.117,0,0,0,1.361,1.447,3.335,3.335,0,0,0,3.8.493,5.019,5.019,0,0,0,2.534-2.035c.212-.376.523-.386.877-.385q3.687.007,7.372,0c2.16,0,4.318.013,6.478-.008a2.683,2.683,0,0,1,1.927.753q4.908,4.484,9.835,8.947a3.824,3.824,0,0,0,.3.281,2.448,2.448,0,0,1,.829,2.66,1.2,1.2,0,0,1-1.229,1.084c-.183.015-.367.009-.552.009H642.176Z" transform="translate(5.772 4.79)" fill="#fff"/>
    <path id="Path_13120" data-name="Path 13120" d="M571.037,361.037a26.188,26.188,0,0,0,5.523,12.033c-.146.182-.262.346-.4.493q-2.606,2.841-5.222,5.675a4.617,4.617,0,0,0-1.185,2.065,3.355,3.355,0,0,0-.128.877,13.645,13.645,0,0,0,1.566,6.147,15.825,15.825,0,0,0,.96,1.425.8.8,0,0,1-.081,1.219q-.51.511-1.057.985a.8.8,0,0,1-1.226.048,19.338,19.338,0,0,1-3.262-2.95,27.431,27.431,0,0,1-5.142-8.887,40.064,40.064,0,0,1-2-8.145,1.624,1.624,0,0,1,.665-1.669q4.9-3.907,9.772-7.848a4.925,4.925,0,0,0,.671-.589,7.162,7.162,0,0,0,.541-.881" transform="translate(0.399 3.967)" fill="#fff"/>
    <path id="Path_13121" data-name="Path 13121" d="M606.59,384.241a4.338,4.338,0,0,0,2.366,3.2,5.886,5.886,0,0,1-.588.075q-13.085-.007-26.171-.02c-2.135,0-4.27-.061-6.405-.053a4.208,4.208,0,0,1-3.955-2.607c-.276-.537-.159-.684.453-.681q8.266.041,16.529.08c3.076.017,6.152.066,9.228.068,2.571,0,5.141-.039,7.712-.062.25,0,.5,0,.832,0" transform="translate(1.586 6.191)" fill="#fff"/>
    <path id="Path_13122" data-name="Path 13122" d="M614.218,387.134c.681-.05,1.361-.132,2.043-.143.964-.019,1.928.024,2.893.019a12.237,12.237,0,0,0,5.341-1.144,11.942,11.942,0,0,0,1.988-1.219,2.04,2.04,0,0,1,1.322-.435c3.605.005,7.21-.006,10.815-.012q7.577-.016,15.154-.031a4.679,4.679,0,0,1,.823.034c.345.061.5.319.319.608-.482.778-.992,1.543-1.535,2.28a1.219,1.219,0,0,1-1.077.339c-1.676-.005-3.352,0-5.028,0q-13.365-.033-26.728-.07c-1.928-.007-3.858-.025-5.786-.041-.181,0-.361-.021-.542-.031,0-.05,0-.1,0-.15" transform="translate(5.676 6.192)" fill="#fff"/>
    <path id="Path_13123" data-name="Path 13123" d="M631.756,392.485c0-.923-.018-1.747.007-2.571.015-.516.2-.681.737-.7.619-.021,1.24-.013,1.859-.014q8.3-.015,16.59-.034a2.184,2.184,0,0,1,1.351.389c.71.5,1.459.954,2.193,1.423.218.14.44.286.406.584s-.307.377-.545.456a11.061,11.061,0,0,1-3.586.57q-6.917-.031-13.836-.051c-1.423,0-2.846-.006-4.269-.013-.27,0-.539-.023-.907-.041" transform="translate(7.363 6.673)" fill="#fff"/>
    <path id="Path_13124" data-name="Path 13124" d="M592.882,392.352c-7.42-.033-14.738-.06-22.056-.146-.1,0-.2-.088-.388-.177a3.737,3.737,0,0,1,.373-.5c.819-.773,1.653-1.527,2.468-2.3a.9.9,0,0,1,.868-.243,11.558,11.558,0,0,0,1.911.2q7.715.054,15.431.073c1.268.005,1.389.119,1.393,1.367,0,.545,0,1.089,0,1.724" transform="translate(1.465 6.653)" fill="#fff"/>
    <path id="Path_13125" data-name="Path 13125" d="M572.658,326.329c-.1.215-.212.424-.287.647a9.249,9.249,0,0,0-.464,3.051,1.7,1.7,0,0,1-.4,1.131c-.389.482-.746.991-1.128,1.479a4.884,4.884,0,0,1-.479.452c-.049-.356-.093-.57-.106-.785a10.539,10.539,0,0,1,1.5-5.787c.155-.281.342-.544.505-.82a8.484,8.484,0,0,1,6.279-4.136,14.089,14.089,0,0,1,8.2,1.161,6.849,6.849,0,0,1,.661.367c.032.019.039.078.058.118-.018.038-.032.109-.053.111-.773.076-1.544.176-2.32.2a2.637,2.637,0,0,1-.841-.273c-.975-.339-1.947-.683-2.925-1.011a4.207,4.207,0,0,0-.646-.113l-.069.138a1.605,1.605,0,0,0,.3.254c.6.289,1.208.558,1.807.85a5.6,5.6,0,0,1,.569.365c-.17.391-.509.357-.77.457a1.9,1.9,0,0,1-1.94-.27,8.829,8.829,0,0,0-1.517-.8,4.728,4.728,0,0,0-.762-.22l-.073.132a2.312,2.312,0,0,0,.284.3c.479.356.981.68,1.443,1.055.361.293.315.489-.1.72a1.3,1.3,0,0,1-1.851-.226c-.343-.306-.679-.62-1.028-.917a2.758,2.758,0,0,0-.426-.255l-.131.118c.122.2.236.4.367.6.232.341.49.665.713,1.013a.618.618,0,0,1-.187,1c-.261.189-.531.365-.808.526-.463.271-.623.226-.842-.278-.2-.463-.355-.945-.537-1.415-.061-.159-.145-.31-.288-.615a1.863,1.863,0,0,0-.128.5c.089.613.171,1.228.307,1.832a1.408,1.408,0,0,1-.537,1.581c-.325.248-.62.533-1.021.88a1.807,1.807,0,0,1-.213-.526c0-.641.032-1.283.058-1.923.008-.2.036-.391.055-.586l-.224-.065" transform="translate(1.401 0.152)" fill="#fff"/>
    <path id="Path_13126" data-name="Path 13126" d="M574.553,376.151a2.038,2.038,0,0,1,.178.4,3.294,3.294,0,0,0,1.171,1.969,16.979,16.979,0,0,0,4.484,2.9c.748.345,1.526.626,2.29.937.164.067.328.137.648.27a3.722,3.722,0,0,1-.573.12q-5.022-.021-10.041-.053a1.768,1.768,0,0,1-1.753-1.1,1.844,1.844,0,0,1,.356-2.106q1.383-1.531,2.792-3.039a2.8,2.8,0,0,1,.449-.306" transform="translate(1.497 5.421)" fill="#fff"/>
    <path id="Path_13127" data-name="Path 13127" d="M566.65,391.262a2.273,2.273,0,0,1-.278-.149,22.391,22.391,0,0,1-7.6-9.339,19.8,19.8,0,0,1-1.54-7.852,6.372,6.372,0,0,1,.091-.889,2.87,2.87,0,0,1,.186-.472c.087.339.145.523.18.71a36.582,36.582,0,0,0,4.247,11.87,25.3,25.3,0,0,0,4.452,5.667,2.638,2.638,0,0,0,.4.267Z" transform="translate(0.194 5.075)" fill="#fff"/>
    <path id="Path_13128" data-name="Path 13128" d="M574.946,338.075a3.432,3.432,0,0,1-.487-.42,11.371,11.371,0,0,1-2.044-4.161,1.919,1.919,0,0,1,.4-1.8c.252-.3.485-.612.749-.9.367-.4.583-.361.814.116.26.536.474,1.1.767,1.611.327.574.709,1.119,1.089,1.663a1.006,1.006,0,0,1,.147,1.093c-.406.82-.82,1.635-1.233,2.451-.05.1-.114.2-.2.341" transform="translate(1.648 1.032)" fill="#fff"/>
    <path id="Path_13129" data-name="Path 13129" d="M579.173,331.632a3.456,3.456,0,0,1-.352.59c-.438.5-.9.979-1.362,1.459-.36.376-.619.389-.875-.058-.605-1.052-1.167-2.13-1.723-3.21a.906.906,0,0,1,.215-1.136,15.224,15.224,0,0,1,1.393-1.122.534.534,0,0,1,.88.158c.585.96,1.137,1.941,1.7,2.918a2.421,2.421,0,0,1,.128.4" transform="translate(1.879 0.788)" fill="#fff"/>
    <path id="Path_13130" data-name="Path 13130" d="M582.509,329.439c-.118.168-.205.406-.375.513-.616.392-1.253.756-1.9,1.1-.327.174-.556.079-.8-.3s-.458-.791-.687-1.187c-.286-.5-.585-.983-.856-1.486-.282-.523-.213-.79.289-1.082.395-.228.808-.428,1.222-.62a.966.966,0,0,1,1.294.267c.547.729,1.067,1.479,1.584,2.23a2.985,2.985,0,0,1,.224.565" transform="translate(2.166 0.619)" fill="#fff"/>
    <path id="Path_13131" data-name="Path 13131" d="M583.126,325.114a3.9,3.9,0,0,1,.791.369,4.938,4.938,0,0,1,1.7,2.449c.169.52.042.772-.477.95-.434.15-.876.276-1.32.393a.651.651,0,0,1-.869-.352,13.322,13.322,0,0,0-1.751-2.629c-.29-.351-.211-.577.225-.718.544-.175,1.1-.3,1.7-.464" transform="translate(2.484 0.511)" fill="#fff"/>
    <path id="Path_13132" data-name="Path 13132" d="M584.622,325a2.508,2.508,0,0,1,3.184.7,5.521,5.521,0,0,1,1.1,2.194c.165.643-.019.859-.672.83-.389-.018-.778-.055-1.168-.073a.8.8,0,0,1-.8-.549,7.885,7.885,0,0,0-1.593-2.862c-.038-.044-.034-.126-.06-.237" transform="translate(2.829 0.473)" fill="#fff"/>
    <path id="Path_13133" data-name="Path 13133" d="M588.264,324.84c.693.166,1.439.3,1.8,1.024.39.773.674,1.6,1,2.4a.551.551,0,0,1,.026.135c.076.545-.024.864-.3.969a1.1,1.1,0,0,1-1.1-.54,1.2,1.2,0,0,1-.124-.389,6.68,6.68,0,0,0-1.308-3.212,1,1,0,0,1-.1-.242l.1-.146" transform="translate(3.17 0.485)" fill="#fff"/>
    <path id="Path_13134" data-name="Path 13134" d="M571.671,333.553l1.016,2.522-2.228-.5a4.61,4.61,0,0,1,1.211-2.023" transform="translate(1.467 1.323)" fill="#fff"/>
    <path id="Path_13135" data-name="Path 13135" d="M615.131,378.552a15.858,15.858,0,0,0,1.233,1.4,14.052,14.052,0,0,0,1.438,1.021,2.59,2.59,0,0,1-2.671-2.422" transform="translate(5.764 5.652)" fill="#fff"/>
    <path id="Path_13136" data-name="Path 13136" d="M625.828,358.371a2.556,2.556,0,0,1-2.656,2.388,14.6,14.6,0,0,0,1.47-1.03,14.209,14.209,0,0,0,1.186-1.357" transform="translate(6.538 3.71)" fill="#fff"/>
    <path id="Path_13137" data-name="Path 13137" d="M633.889,351.547a1.161,1.161,0,1,1-1.158,1.207,1.185,1.185,0,0,1,1.158-1.207" transform="translate(7.457 3.054)"/>
    <path id="Path_13138" data-name="Path 13138" d="M633.881,363.454a1.153,1.153,0,1,1,.034-2.306,1.153,1.153,0,1,1-.034,2.306" transform="translate(7.458 3.977)"/>
    <path id="Path_13139" data-name="Path 13139" d="M622.153,352.694a1.157,1.157,0,1,1-2.314.033,1.157,1.157,0,1,1,2.314-.033" transform="translate(6.217 3.054)"/>
    <path id="Path_13140" data-name="Path 13140" d="M642.012,362.3a1.15,1.15,0,1,1-1.113-1.156,1.135,1.135,0,0,1,1.113,1.156" transform="translate(8.129 3.977)"/>
    <path id="Path_13141" data-name="Path 13141" d="M640.841,353.869a1.14,1.14,0,0,1-1.131-1.144,1.152,1.152,0,1,1,2.3.041,1.135,1.135,0,0,1-1.17,1.1" transform="translate(8.129 3.054)"/>
    <path id="Path_13142" data-name="Path 13142" d="M602.64,354.463a2.765,2.765,0,0,0-2.068-.146,2.352,2.352,0,0,0,2.068.146m-3.737,3.653.189.015a1.34,1.34,0,0,0,.143-.461,3.8,3.8,0,0,0-.538-1.838c-.039.781-.284,1.582.207,2.284m2.936-5.843-.929,1.073c.233.037.4.065.559.088.475.066.956.1,1.423.2a.806.806,0,0,1,.676.615.839.839,0,0,1-.414.882,2.528,2.528,0,0,1-.817.309,3.427,3.427,0,0,0-.718.146c.418.3.837.593,1.251.9.23.169.571.3.381.687-.123.251-.379.22-.829-.083-.53-.362-1.055-.732-1.586-1.093a1.015,1.015,0,0,0-.535-.185,4.785,4.785,0,0,0,.231.447c.354.536.717,1.064,1.074,1.6.1.152.2.307.292.467a.362.362,0,0,1-.092.542c-.22.139-.4.026-.533-.153-.253-.354-.49-.72-.737-1.079a1.551,1.551,0,0,0-.523-.513c0,.234.01.47,0,.7a1,1,0,0,1-.933,1.082.986.986,0,0,1-1.093-.834,7.982,7.982,0,0,1-.152-1.087c-.023-.2-.032-.395-.058-.727-.4.315-.716.567-1.037.8a2.017,2.017,0,0,1-1,.555c.1-.773,1.451-2.443,2.887-3.623,1.4-1.149,2.508-1.771,3.21-1.721" transform="translate(3.899 3.123)"/>
    <path id="Path_13143" data-name="Path 13143" d="M586.766,373.189l4.324-5.779a49.035,49.035,0,0,1,6.931,6.2,3.075,3.075,0,0,1-.473-.208q-2.683-1.861-5.359-3.733c-.094-.067-.179-.145-.273-.21-.432-.3-.594-.283-.93.108-.388.453-.759.92-1.16,1.359a9.553,9.553,0,0,1-2.382,1.958c-.183.1-.384.172-.68.3" transform="translate(3.036 4.58)"/>
    <path id="Path_13144" data-name="Path 13144" d="M576.381,356.816a2.678,2.678,0,0,1,1.951.377,1.1,1.1,0,0,1,.574,1.029,10.361,10.361,0,0,1-.189,1.834c-.17.779-.434,1.539-.665,2.3a2.428,2.428,0,0,1-.243.4,6.608,6.608,0,0,1-.048-.747c.058-.844.08-1.695.21-2.528a2.078,2.078,0,0,0-1.012-2.28c-.2-.124-.386-.259-.579-.389" transform="translate(2.036 3.556)"/>
    <path id="Path_13145" data-name="Path 13145" d="M586.247,335.022a5.761,5.761,0,0,1-.486,1.039.592.592,0,0,1-.955.032,1.788,1.788,0,0,1-.07-2.213.678.678,0,0,1,1.114.089,5.548,5.548,0,0,1,.4,1.053" transform="translate(2.807 1.33)"/>
    <path id="Path_13146" data-name="Path 13146" d="M590.6,334.436c0,.7-.279,1.155-.628,1.2a.892.892,0,0,1-.887-.8,2.25,2.25,0,0,1,.013-1,.9.9,0,0,1,.491-.5.564.564,0,0,1,.692.312,5.468,5.468,0,0,1,.319.782" transform="translate(3.254 1.299)"/>
    <path id="Path_13147" data-name="Path 13147" d="M585.2,338.722a2.014,2.014,0,0,1-.6.187,3.611,3.611,0,0,0-2.565.966c-.029.024-.086.015-.2.034a1.815,1.815,0,0,1,1.221-1.427,2.472,2.472,0,0,1,2.12-.009c.008.083.014.166.022.249" transform="translate(2.561 1.773)"/>
    <path id="Path_13148" data-name="Path 13148" d="M585.214,331.513a1.492,1.492,0,0,1,.207.02c.219.042.43.15.365.395a.5.5,0,0,1-.376.293,1.922,1.922,0,0,0-1.753.879.5.5,0,0,1-.46.12c-.231-.1-.186-.329-.092-.533a2.4,2.4,0,0,1,2.109-1.173" transform="translate(2.676 1.126)"/>
    <path id="Path_13149" data-name="Path 13149" d="M571.6,339.395c0-.386.186-.547.569-.452a1.308,1.308,0,0,1,.485.241,3.242,3.242,0,0,1,1.1,1.782c.117.449-.132.665-.567.534a2.906,2.906,0,0,1-1.583-2.106" transform="translate(1.576 1.839)"/>
  </g>
</svg>
